<?xml version="1.0" encoding="utf-8"?>
<!-- Generator: Adobe Illustrator 18.0.0, SVG Export Plug-In . SVG Version: 6.00 Build 0)  -->
<!DOCTYPE svg PUBLIC "-//W3C//DTD SVG 1.1//EN" "http://www.w3.org/Graphics/SVG/1.1/DTD/svg11.dtd">
<svg version="1.1" id="Capa_1" xmlns="http://www.w3.org/2000/svg" xmlns:xlink="http://www.w3.org/1999/xlink" x="0px" y="0px"
	 viewBox="0 23.5 336 114.7" enable-background="new 0 23.5 336 114.7" xml:space="preserve">
<path d="M334.1,28.8c4.4,10.9,0.4,19.1-4.2,28.6c-2.1,4.4-5.6,7.8-7,11.9c-1.6,4.7-1.9,10.3-2.8,15.4c-2.6,14.3-5.4,29.8-14.7,38.4
	c-7.7,7.1-26.9,12.8-40.5,14c-49,4-69.2-20.4-81-53.8c-3.6-10.1-4.9-20.6-18.2-19.6c-10.6,0.9-11.1,9.5-15.4,22.3
	c-9.2,27.7-26.3,49-61.5,51.7c-20.7,1.6-46-2.6-56.6-12.6C22.5,116,19,97.3,15.5,80.5c-1.2-6.1-2.7-8.7-5.6-13.3
	c-1.4-2.1-2.4-3.9-3.5-6.3c-3.9-8.5-9.1-17.3-4.9-29.4c45.2-7.3,85.6-7.2,126.4,0.7c13,2.5,26.3,6.7,39.1,7
	c15,0.4,33.2-5.4,47.5-8.4C252.1,23.2,293.1,19.9,334.1,28.8z"/>
</svg>
