<?xml version="1.0" encoding="utf-8"?>
<!-- Generator: Adobe Illustrator 18.0.0, SVG Export Plug-In . SVG Version: 6.00 Build 0)  -->
<!DOCTYPE svg PUBLIC "-//W3C//DTD SVG 1.1//EN" "http://www.w3.org/Graphics/SVG/1.1/DTD/svg11.dtd">
<svg version="1.1" xmlns="http://www.w3.org/2000/svg" xmlns:xlink="http://www.w3.org/1999/xlink" x="0px" y="0px"
	 viewBox="0 0 1170 3382" enable-background="new 0 0 1170 3382" xml:space="preserve">
<g id="Pag1">
	<g id="Body">
		<rect fill="#E6E6E6" width="1170" height="3382.1"/>
	</g>
	<g id="Guias" display="none">
	</g>
	<g id="Grillas" display="none">
	</g>
	<g id="Nav">
		<rect fill="#FF7064" width="1170" height="60"/>
		<text transform="matrix(1 0 0 1 515.4977 40)" fill="#F2F2F2" font-family="'KlinicSlab-BoldItalic'" font-size="32">Víctor A Díaz</text>
	</g>
	<g>
		<rect x="1" y="2964.2" fill="#2FCC9F" width="1170" height="417.8"/>
		<g>
			<path fill="none" stroke="#E6E6E6" stroke-miterlimit="10" d="M656,3035H517c-1.7,0-3-1.3-3-3v-21c0-1.7,1.3-3,3-3h139
				c1.7,0,3,1.3,3,3v21C659,3033.7,657.7,3035,656,3035z"/>
			<g>
				<text transform="matrix(1 0 0 1 561.3644 3026.6719)" fill="#E6E6E6" font-family="'FiraSans-ExtraLight'" font-size="18">MarsVic5</text>
				<path fill="#E6E6E6" d="M557,3015.5c-0.6,0.3-1.2,0.4-1.8,0.5c0.7-0.4,1.2-1,1.4-1.8c-0.6,0.4-1.3,0.6-2,0.8
					c-0.6-0.6-1.4-1-2.3-1c-1.8,0-3.2,1.4-3.2,3.2c0,0.3,0,0.5,0.1,0.7c-2.7-0.1-5-1.4-6.6-3.3c-0.3,0.5-0.4,1-0.4,1.6
					c0,1.1,0.6,2.1,1.4,2.7c-0.5,0-1-0.2-1.4-0.4c0,0,0,0,0,0c0,1.5,1.1,2.8,2.6,3.1c-0.3,0.1-0.6,0.1-0.8,0.1c-0.2,0-0.4,0-0.6-0.1
					c0.4,1.3,1.6,2.2,3,2.2c-1.1,0.9-2.5,1.4-4,1.4c-0.3,0-0.5,0-0.8,0c1.4,0.9,3.1,1.4,4.9,1.4c5.9,0,9.1-4.9,9.1-9.1
					c0-0.1,0-0.3,0-0.4C556,3016.7,556.6,3016.2,557,3015.5z"/>
			</g>
		</g>
		<g>
			<path fill="none" stroke="#E6E6E6" stroke-miterlimit="10" d="M689.4,3083.8H483.1c-1.7,0-3-1.3-3-3v-21c0-1.7,1.3-3,3-3h206.3
				c1.7,0,3,1.3,3,3v21C692.4,3082.5,691.1,3083.8,689.4,3083.8z"/>
			<g>
				<text transform="matrix(1 0 0 1 510.8088 3075.47)" fill="#E6E6E6" font-family="'FiraSans-ExtraLight'" font-size="18">mars.vic5@gmail.com</text>
				<g>
					<polygon fill="#E6E6E6" points="505.6,3075.5 505.6,3064.4 499.6,3069 502.7,3072.5 502.6,3072.6 499,3069.4 496.8,3071.1 
						494.6,3069.4 491,3072.6 490.9,3072.5 494,3069 488,3064.4 488,3075.5 					"/>
					<polygon fill="#E6E6E6" points="505.2,3063.8 488.4,3063.8 496.8,3070.2 					"/>
				</g>
			</g>
		</g>
		<g>
			<defs>
				<circle id="SVGID_1_" cx="585.9" cy="3158.7" r="55"/>
			</defs>
			<clipPath id="SVGID_2_">
				<use xlink:href="#SVGID_1_"  overflow="visible"/>
			</clipPath>
			<g clip-path="url(#SVGID_2_)">
				
					<image overflow="visible" width="876" height="960" xlink:href="../../../../Users/Jose Agustin Diaz/SkyDrive/PITIN/Blog/MockUp/1451495_357036887775103_1716363078_n.jpg"  transform="matrix(0.1256 0 0 0.1256 530.8873 3097.9282)">
				</image>
			</g>
			<use xlink:href="#SVGID_1_"  overflow="visible" fill="none" stroke="#E6E6E6" stroke-width="2" stroke-miterlimit="10"/>
		</g>
		<text transform="matrix(1 0 0 1 477.9893 3246.5254)" fill="#E6E6E6" font-family="'FiraSans-ExtraLight'" font-size="18">Víctor Agustín Díaz Méndez</text>
	</g>
	<g id="Cuerpo">
		<rect y="493.5" fill="#FFFFFF" width="757" height="995.7"/>
		<g>
			<defs>
				<rect id="SVGID_3_" y="60" width="1170" height="409.5"/>
			</defs>
			<clipPath id="SVGID_4_">
				<use xlink:href="#SVGID_3_"  overflow="visible"/>
			</clipPath>
			<g transform="matrix(1 0 0 1 2.384186e-007 0)" clip-path="url(#SVGID_4_)">
				
					<image overflow="visible" width="1600" height="1190" xlink:href="../../../../Users/Jose Agustin Diaz/SkyDrive/PITIN/Blog/MockUp/7834487532_929534000c_h.jpg"  transform="matrix(0.739 0 0 0.739 -3 -109)">
				</image>
			</g>
		</g>
		<rect x="20" y="565.1" fill="none" width="716" height="777.9"/>
		<text transform="matrix(1 0 0 1 20 582.1026)"><tspan x="0" y="0" fill="#333333" font-family="'KlinicSlab-Book'" font-size="24">Lorem ipsum dolor sit amet, consectetur adipisicing elit, sed do eiusmod</tspan><tspan x="0" y="28.8" fill="#333333" font-family="'KlinicSlab-Book'" font-size="24">tempor incididunt ut labore et dolore magna aliqua. Ut enim ad minim </tspan><tspan x="0" y="57.6" fill="#333333" font-family="'KlinicSlab-Book'" font-size="24">veniam,</tspan><tspan x="0" y="86.4" fill="#333333" font-family="'KlinicSlab-Book'" font-size="24">quis nostrud exercitation ullamco laboris nisi ut aliquip ex ea commodo</tspan><tspan x="0" y="115.2" fill="#333333" font-family="'KlinicSlab-Book'" font-size="24">consequat. Duis aute irure dolor in reprehenderit in voluptate velit esse</tspan><tspan x="0" y="144" fill="#333333" font-family="'KlinicSlab-Book'" font-size="24">cillum dolore eu fugiat nulla pariatur. Excepteur sint occaecat cupidatat </tspan><tspan x="0" y="172.8" fill="#333333" font-family="'KlinicSlab-Book'" font-size="24">non</tspan><tspan x="0" y="201.6" fill="#333333" font-family="'KlinicSlab-Book'" font-size="24">proident, sunt in culpa qui officia deserunt mollit anim id est </tspan><tspan x="597.7" y="201.6" fill="#2FCC9F" font-family="'KlinicSlab-Book'" font-size="24">laborum</tspan><tspan x="679.4" y="201.6" fill="#333333" font-family="'KlinicSlab-Book'" font-size="24">.</tspan><tspan x="0" y="259.2" fill="#333333" font-family="'KlinicSlab-Book'" font-size="24">Lorem ipsum dolor sit amet, consectetur adipisicing elit, sed do eiusmod</tspan><tspan x="0" y="288" fill="#333333" font-family="'KlinicSlab-Book'" font-size="24">tempor incididunt ut labore et dolore magna aliqua. Ut enim ad minim </tspan><tspan x="0" y="316.8" fill="#333333" font-family="'KlinicSlab-Book'" font-size="24">veniam,</tspan><tspan x="0" y="345.6" fill="#333333" font-family="'KlinicSlab-Book'" font-size="24">quis nostrud exercitation ullamco laboris nisi ut aliquip ex ea commodo</tspan><tspan x="0" y="374.4" fill="#333333" font-family="'KlinicSlab-Book'" font-size="24">consequat. Duis aute irure dolor in reprehenderit in voluptate velit esse</tspan><tspan x="0" y="403.2" fill="#333333" font-family="'KlinicSlab-Book'" font-size="24">cillum dolore eu fugiat nulla pariatur. Excepteur sint occaecat cupidatat </tspan><tspan x="0" y="432" fill="#333333" font-family="'KlinicSlab-Book'" font-size="24">non</tspan><tspan x="0" y="460.8" fill="#333333" font-family="'KlinicSlab-Book'" font-size="24">proident, sunt in culpa qui officia deserunt mollit anim id est laborum.</tspan><tspan x="0" y="518.4" fill="#333333" font-family="'KlinicSlab-Book'" font-size="24">Lorem ipsum dolor sit amet, consectetur adipisicing elit, sed do eiusmod</tspan><tspan x="0" y="547.2" fill="#333333" font-family="'KlinicSlab-Book'" font-size="24">tempor incididunt ut labore et dolore magna aliqua. Ut enim ad minim </tspan><tspan x="0" y="576" fill="#333333" font-family="'KlinicSlab-Book'" font-size="24">veniam,</tspan><tspan x="0" y="604.8" fill="#333333" font-family="'KlinicSlab-Book'" font-size="24">quis nostrud exercitation ullamco laboris nisi ut aliquip ex ea commodo</tspan><tspan x="0" y="633.6" fill="#333333" font-family="'KlinicSlab-Book'" font-size="24">consequat. Duis aute irure dolor in reprehenderit in voluptate velit esse</tspan><tspan x="0" y="662.4" fill="#333333" font-family="'KlinicSlab-Book'" font-size="24">cillum dolore eu fugiat nulla pariatur. Excepteur sint occaecat cupidatat </tspan><tspan x="0" y="691.2" fill="#333333" font-family="'KlinicSlab-Book'" font-size="24">non</tspan><tspan x="0" y="720" fill="#333333" font-family="'KlinicSlab-Book'" font-size="24">proident, sunt in culpa qui officia deserunt mollit anim id est laborum.</tspan></text>
		<rect x="798" y="742" fill="none" width="349" height="169.5"/>
		<text transform="matrix(1 0 0 1 877.723 754.7216)"><tspan x="0" y="0" fill="#4D4D4D" font-family="'KlinicSlab-Light'" font-size="18">Vivo en Mazatlán, Sinaloa</tspan><tspan x="41.2" y="21.6" fill="#4D4D4D" font-family="'KlinicSlab-Light'" font-size="18">Soy Méxicano.</tspan><tspan x="-73.5" y="64.8" fill="#4D4D4D" font-family="'KlinicSlab-Light'" font-size="18">Me gusta la web, programacion, dibujar, diver</tspan><tspan x="256.4" y="64.8" fill="#4D4D4D" font-family="'KlinicSlab-Light'" font-size="18">-</tspan><tspan x="-44.8" y="86.4" fill="#4D4D4D" font-family="'KlinicSlab-Light'" font-size="18">tirme con mis amigos y con mi familia.</tspan><tspan x="-73.9" y="129.6" fill="#4D4D4D" font-family="'KlinicSlab-Light'" font-size="18">Actualmente me encuentro cursando la prepa</tspan><tspan x="256.7" y="129.6" fill="#4D4D4D" font-family="'KlinicSlab-Light'" font-size="18">-</tspan><tspan x="69.3" y="151.2" fill="#4D4D4D" font-family="'KlinicSlab-Light'" font-size="18">ratoria.</tspan></text>
		<rect y="228.7" opacity="0.5" fill="#67FFD3" width="1170" height="56.1"/>
		<rect x="425" y="239.6" opacity="0.4" fill="none" width="332" height="36.6"/>
		<text transform="matrix(1 0 0 1 465.4067 266.4276)" fill="#FFFFFF" font-family="'KlinicSlab-MediumItalic'" font-size="38">El titulo del post</text>
		<text transform="matrix(1 0 0 1 798 1067.989)"><tspan x="0" y="0" fill="#2FCC9F" font-family="'KlinicSlab-Bold'" font-size="16">Imagen Sistemas</tspan><tspan x="0" y="24" fill="#2FCC9F" font-family="'KlinicSlab-Bold'" font-size="16">Untitulo</tspan><tspan x="0" y="48" fill="#2FCC9F" font-family="'KlinicSlab-Bold'" font-size="16">Hola Mundo</tspan></text>
		
			<image overflow="visible" width="363" height="430" xlink:href="../../../../Users/Jose Agustin Diaz/SkyDrive/PITIN/Blog/MockUp/business-h-c-363-430-5.jpg"  transform="matrix(0.9614 0 0 0.9791 797 1212.8708)">
		</image>
		<g id="icomoon-ignore">
			<line fill="none" stroke="#449FDB" x1="20" y1="515.5" x2="20" y2="515.5"/>
		</g>
		<g>
			<g>
				<text transform="matrix(1 0 0 1 184.3334 534.1387)" fill="#666666" font-family="'FiraSans-ExtraLight'" font-size="16">VicDiaz</text>
				<path fill="#666666" d="M169.1,528.6c-0.5-0.1-0.5-1.4-0.5-1.4s1.4-1.4,1.7-3.3c0.8,0,1.3-2,0.5-2.7c0-0.7,1.1-5.8-4.1-5.8
					s-4.2,5-4.1,5.8c-0.8,0.7-0.3,2.7,0.5,2.7c0.3,1.9,1.7,3.3,1.7,3.3s0,1.3-0.5,1.4c-1.5,0.2-7.3,2.8-7.3,5.6h19.3
					C176.3,531.4,170.6,528.8,169.1,528.6L169.1,528.6z"/>
			</g>
			<g>
				<text transform="matrix(1 0 0 1 47.3333 534.1387)" fill="#666666" font-family="'FiraSans-ExtraLight'" font-size="16">4 Agosto 2014</text>
				<path fill="#666666" d="M25.8,522.5h2.3v2.3h-2.3V522.5z M29.3,522.5h2.3v2.3h-2.3V522.5z M32.8,522.5h2.3v2.3h-2.3V522.5z
					 M22.3,529.5h2.3v2.3h-2.3V529.5z M25.8,529.5h2.3v2.3h-2.3V529.5z M29.3,529.5h2.3v2.3h-2.3V529.5z M25.8,526h2.3v2.3h-2.3V526
					z M29.3,526h2.3v2.3h-2.3V526z M32.8,526h2.3v2.3h-2.3V526z M22.3,526h2.3v2.3h-2.3V526z M35.2,515.5v1.2h-2.3v-1.2h-8.2v1.2
					h-2.3v-1.2H20v18.6h17.5v-18.6H35.2z M36.3,533H21.2v-12.8h15.2V533z"/>
			</g>
		</g>
		<line fill="none" stroke="#999999" stroke-width="2" stroke-miterlimit="10" x1="20" y1="1441" x2="736" y2="1441"/>
		<path fill="#FF7064" d="M725.6,1458.2c-0.4-0.3-0.4-0.8,0-1.1c0.4-0.3,0.8-0.3,1.1,0l9.1,9.2c0.3,0.3,0.3,0.8,0,1.2l-9.1,9.2
			c-0.3,0.3-0.8,0.3-1.1,0c-0.3-0.3-0.3-0.8,0-1.2l8.3-8.6L725.6,1458.2z"/>
		<path fill="#FF7064" d="M29.9,1475.4c0.3,0.3,0.3,0.8,0,1.2c-0.3,0.4-0.8,0.3-1.1,0l-9.1-9.2c-0.3-0.3-0.3-0.8,0-1.2l9.1-9.2
			c0.3-0.3,0.8-0.3,1.1,0c0.3,0.3,0.3,0.8,0,1.2l-8.3,8.6L29.9,1475.4z"/>
		<text transform="matrix(1 0 0 1 34.171 1473.3601)" fill="#FF7064" font-family="'FiraSans-ExtraLight'" font-size="18">Logo Sistemas</text>
		<text transform="matrix(1 0 0 1 516.8276 1473.3601)" fill="#FF7064" font-family="'FiraSans-ExtraLight'" font-size="18">Comienza el grán Camino</text>
		<rect y="1511" fill="#FFFFFF" width="756" height="1432.5"/>
		<g>
			<rect y="1511" fill="#FF7064" width="767.3" height="51"/>
			<text transform="matrix(1 0 0 1 20.6038 1544.5879)" fill="#FFFFFF" font-family="'KlinicSlab-BoldItalic'" font-size="28">Comentarios</text>
		</g>
		<g id="icomoon-ignore_1_">
			<line fill="none" stroke="#449FDB" x1="110" y1="1668" x2="110" y2="1668"/>
		</g>
		<rect x="798" y="1004.8" fill="none" width="349" height="26"/>
		<text transform="matrix(1 0 0 1 798 1021.72)" fill="#FF7064" font-family="'KlinicSlab-Book'" font-size="24">Reciente</text>
		<path fill="#67FFD3" d="M917.6,1056.9c-0.3-0.3-0.3-0.7,0-1c0.3-0.3,0.7-0.3,1,0l8,8c0.3,0.3,0.3,0.7,0,1l-8,8
			c-0.3,0.3-0.7,0.3-1,0c-0.3-0.3-0.3-0.7,0-1l7.3-7.5L917.6,1056.9z"/>
		<path fill="#67FFD3" d="M862.2,1079.9c-0.3-0.3-0.3-0.7,0-0.9c0.3-0.3,0.7-0.3,0.9,0l7.9,7.9c0.3,0.3,0.3,0.7,0,1l-7.9,7.9
			c-0.3,0.3-0.7,0.3-0.9,0s-0.3-0.7,0-1l7.2-7.4L862.2,1079.9z"/>
		<path fill="#67FFD3" d="M888.9,1105.1c-0.3-0.2-0.3-0.6,0-0.9c0.3-0.2,0.6-0.2,0.9,0l7.3,7.4c0.2,0.2,0.2,0.6,0,0.9l-7.3,7.4
			c-0.2,0.2-0.6,0.2-0.9,0s-0.2-0.6,0-0.9l6.7-6.9L888.9,1105.1z"/>
		<g>
			<g>
				<path fill="#67FFD3" d="M113.3,2178.8c0,0.9,0.5,1.7,1.3,2v0.3c-0.2,0-0.4,0-0.6,0c-1.3,0-2.5-0.6-3.4-1.5
					c-0.5,0.1-1.1,0.2-1.6,0.2c-3.1,0-5.6-2.2-5.6-5c0-2.8,2.5-5,5.6-5c3.1,0,5.6,2.2,5.6,5c0,1.1-0.4,2.1-1,2.9
					C113.3,2178.2,113.3,2178.5,113.3,2178.8L113.3,2178.8z M102,2161.2c5.4,0,9.9,3.5,10,7.9c-1-0.4-2-0.7-3.1-0.7
					c-1.9,0-3.6,0.7-5,1.8c-1.4,1.2-2.1,2.9-2.1,4.6c0,0.9,0.2,1.7,0.5,2.5c-0.1,0-0.2,0-0.3,0c-0.5,0-1.1,0-1.6-0.1
					c-2.1,2.1-4.7,2.5-7.2,2.6v-0.5c1.3-0.7,2.5-1.9,2.5-3.2c0-0.2,0-0.4,0-0.6c-2.3-1.5-3.7-3.8-3.7-6.3
					C92,2164.9,96.5,2161.2,102,2161.2z"/>
				<g>
					<g>
						<rect x="20" y="2079" fill="#2FCC9F" width="42" height="42"/>
						
							<image overflow="visible" width="34" height="34" xlink:href="../../../../Users/Jose Agustin Diaz/SkyDrive/PITIN/Blog/MockUp/user.png"  transform="matrix(1 0 0 1 24 2083)">
						</image>
					</g>
					<text transform="matrix(1 0 0 1 72 2106)" fill="#808080" font-family="'KlinicSlab-Bold'" font-size="18">Juan Perez Perez</text>
					<text transform="matrix(1 0 0 1 82 2145)" fill="#4D4D4D" font-family="'KlinicSlab-Light'" font-size="18">Hola que tal amigos, ¿como estan?</text>
					<text transform="matrix(1 0 0 1 122.0308 2178)" fill="#67FFD3" font-family="'KlinicSlab-Light'" font-size="20">Responder</text>
				</g>
			</g>
			<line fill="none" stroke="#999999" stroke-miterlimit="10" x1="82" y1="2194.5" x2="736" y2="2194.5"/>
		</g>
		<g>
			<g>
				<path fill="#67FFD3" d="M113.3,2303.8c0,0.9,0.5,1.7,1.3,2v0.3c-0.2,0-0.4,0-0.6,0c-1.3,0-2.5-0.6-3.4-1.5
					c-0.5,0.1-1.1,0.2-1.6,0.2c-3.1,0-5.6-2.2-5.6-5c0-2.8,2.5-5,5.6-5c3.1,0,5.6,2.2,5.6,5c0,1.1-0.4,2.1-1,2.9
					C113.3,2303.2,113.3,2303.5,113.3,2303.8L113.3,2303.8z M102,2286.2c5.4,0,9.9,3.5,10,7.9c-1-0.4-2-0.7-3.1-0.7
					c-1.9,0-3.6,0.7-5,1.8c-1.4,1.2-2.1,2.9-2.1,4.6c0,0.9,0.2,1.7,0.5,2.5c-0.1,0-0.2,0-0.3,0c-0.5,0-1.1,0-1.6-0.1
					c-2.1,2.1-4.7,2.5-7.2,2.6v-0.5c1.3-0.7,2.5-1.9,2.5-3.2c0-0.2,0-0.4,0-0.6c-2.3-1.5-3.7-3.8-3.7-6.3
					C92,2289.9,96.5,2286.2,102,2286.2z"/>
				<g>
					<g>
						<rect x="20" y="2204" fill="#2FCC9F" width="42" height="42"/>
						
							<image overflow="visible" width="34" height="34" xlink:href="../../../../Users/Jose Agustin Diaz/SkyDrive/PITIN/Blog/MockUp/user.png"  transform="matrix(1 0 0 1 24 2208)">
						</image>
					</g>
					<text transform="matrix(1 0 0 1 72 2231)" fill="#808080" font-family="'KlinicSlab-Bold'" font-size="18">Juan Perez Perez</text>
					<text transform="matrix(1 0 0 1 82 2270)" fill="#4D4D4D" font-family="'KlinicSlab-Light'" font-size="18">Hola que tal amigos, ¿como estan?</text>
					<text transform="matrix(1 0 0 1 122.0308 2303)" fill="#67FFD3" font-family="'KlinicSlab-Light'" font-size="20">Responder</text>
				</g>
			</g>
			<line fill="none" stroke="#999999" stroke-miterlimit="10" x1="82" y1="2319.5" x2="736" y2="2319.5"/>
		</g>
		<g>
			<g>
				<path fill="#67FFD3" d="M113.3,2905.8c0,0.9,0.5,1.7,1.3,2v0.3c-0.2,0-0.4,0-0.6,0c-1.3,0-2.5-0.6-3.4-1.5
					c-0.5,0.1-1.1,0.2-1.6,0.2c-3.1,0-5.6-2.2-5.6-5c0-2.8,2.5-5,5.6-5c3.1,0,5.6,2.2,5.6,5c0,1.1-0.4,2.1-1,2.9
					C113.3,2905.2,113.3,2905.5,113.3,2905.8L113.3,2905.8z M102,2888.2c5.4,0,9.9,3.5,10,7.9c-1-0.4-2-0.7-3.1-0.7
					c-1.9,0-3.6,0.7-5,1.8c-1.4,1.2-2.1,2.9-2.1,4.6c0,0.9,0.2,1.7,0.5,2.5c-0.1,0-0.2,0-0.3,0c-0.5,0-1.1,0-1.6-0.1
					c-2.1,2.1-4.7,2.5-7.2,2.6v-0.5c1.3-0.7,2.5-1.9,2.5-3.2c0-0.2,0-0.4,0-0.6c-2.3-1.5-3.7-3.8-3.7-6.3
					C92,2891.9,96.5,2888.2,102,2888.2z"/>
				<g>
					<g>
						<rect x="20" y="2806" fill="#2FCC9F" width="42" height="42"/>
						
							<image overflow="visible" width="34" height="34" xlink:href="../../../../Users/Jose Agustin Diaz/SkyDrive/PITIN/Blog/MockUp/user.png"  transform="matrix(1 0 0 1 24 2810)">
						</image>
					</g>
					<text transform="matrix(1 0 0 1 72 2833)" fill="#808080" font-family="'KlinicSlab-Bold'" font-size="18">Juan Perez Perez</text>
					<text transform="matrix(1 0 0 1 82 2872)" fill="#4D4D4D" font-family="'KlinicSlab-Light'" font-size="18">Hola que tal amigos, ¿como estan?</text>
					<text transform="matrix(1 0 0 1 122.0308 2905)" fill="#67FFD3" font-family="'KlinicSlab-Light'" font-size="20">Responder</text>
				</g>
			</g>
			<line fill="none" stroke="#999999" stroke-miterlimit="10" x1="82" y1="2921.5" x2="736" y2="2921.5"/>
		</g>
		<text transform="matrix(1 0 0 1 20 1602.085)" fill="#FF7064" font-family="'KlinicSlab-Medium'" font-size="24">Deja tu Comentario</text>
		<rect x="22" y="1620" fill="none" width="712" height="14"/>
		<text transform="matrix(1 0 0 1 22 1629.8975)" fill="#4D4D4D" font-family="'KlinicSlab-Light'" font-size="14">Tu dirección de correo electrónico no será publicada. Los campos necesarios están marcados </text>
		<text transform="matrix(1 0 0 1 20 1656)" fill="#808080" font-family="'KlinicSlab-Bold'" font-size="18">Nombre:</text>
		<path fill="#FFFFFF" stroke="#E6E6E6" stroke-miterlimit="10" d="M738,1700H21c-0.6,0-1-0.4-1-1v-30c0-0.6,0.4-1,1-1h717
			c0.6,0,1,0.4,1,1v30C739,1699.6,738.6,1700,738,1700z"/>
		<text transform="matrix(1 0 0 1 20 1726)" fill="#808080" font-family="'KlinicSlab-Bold'" font-size="18">Correo electrónico:</text>
		<path fill="#FFFFFF" stroke="#E6E6E6" stroke-miterlimit="10" d="M738,1770H21c-0.6,0-1-0.4-1-1v-30c0-0.6,0.4-1,1-1h717
			c0.6,0,1,0.4,1,1v30C739,1769.6,738.6,1770,738,1770z"/>
		<text transform="matrix(1 0 0 1 20 1794)" fill="#808080" font-family="'KlinicSlab-Bold'" font-size="18">Comentario:</text>
		<path fill="#FFFFFF" stroke="#E6E6E6" stroke-miterlimit="10" d="M738,1999H21c-0.6-0.9-1-1.3-1-1.8v-190.2c0-0.5,0.4-0.9,1-0.9
			h717c0.6,0,1,0.4,1,0.9v190.2C739,1997.7,738.6,1998.1,738,1999z"/>
		<g>
			<path fill="#FF7064" d="M734.8,2045.3h-190c-2.8,0-5-2.2-5-5v-26.2c0-2.8,2.2-5,5-5h190c2.8,0,5,2.2,5,5v26.2
				C739.8,2043.1,737.5,2045.3,734.8,2045.3z"/>
			<g>
				<text transform="matrix(1 0 0 1 581.1293 2032.3632)" fill="#FFFFFF" font-family="'KlinicSlab-Bold'" font-size="18">Comentar</text>
				<g>
					<polygon fill="#FFFFFF" points="674.8,2020 698.4,2039.9 684.5,2015.7 					"/>
					<polygon fill="#FFFFFF" points="661.7,2025.9 698.4,2039.9 672.1,2021.3 					"/>
					<polygon fill="#FFFFFF" points="692.1,2039.1 671.3,2031.1 671,2036.2 					"/>
				</g>
			</g>
		</g>
		<g>
			<g>
				<g>
					<g>
						<path fill="#67FFD3" d="M175,2784.5c0,0.9,0.5,1.7,1.3,2v0.3c-0.2,0-0.4,0-0.6,0c-1.3,0-2.5-0.6-3.4-1.5
							c-0.5,0.1-1.1,0.2-1.6,0.2c-3.1,0-5.6-2.2-5.6-5c0-2.8,2.5-5,5.6-5s5.6,2.2,5.6,5c0,1.1-0.4,2.1-1,2.9
							C175.1,2783.8,175,2784.2,175,2784.5L175,2784.5z M163.7,2766.9c5.4,0,9.9,3.5,10,7.9c-1-0.4-2-0.7-3.1-0.7
							c-1.9,0-3.6,0.7-5,1.8c-1.4,1.2-2.1,2.9-2.1,4.6c0,0.9,0.2,1.7,0.5,2.5c-0.1,0-0.2,0-0.3,0c-0.5,0-1.1,0-1.6-0.1
							c-2.1,2.1-4.7,2.5-7.2,2.6v-0.5c1.3-0.7,2.5-1.9,2.5-3.2c0-0.2,0-0.4,0-0.6c-2.3-1.5-3.7-3.8-3.7-6.3
							C153.7,2770.5,158.2,2766.9,163.7,2766.9z"/>
						<g>
							<g>
								<rect x="82" y="2330" fill="#2FCC9F" width="42" height="42"/>
								
									<image overflow="visible" width="34" height="34" xlink:href="../../../../Users/Jose Agustin Diaz/SkyDrive/PITIN/Blog/MockUp/user.png"  transform="matrix(1 0 0 1 86 2334)">
								</image>
							</g>
							<text transform="matrix(1 0 0 1 134 2357)" fill="#808080" font-family="'KlinicSlab-Bold'" font-size="18">Juan Perez Perez</text>
							<text transform="matrix(1 0 0 1 184.0308 2782)" fill="#67FFD3" font-family="'KlinicSlab-Light'" font-size="20">Responder</text>
						</g>
					</g>
					<line fill="none" stroke="#999999" stroke-miterlimit="10" x1="144" y1="2795.5" x2="736" y2="2795.5"/>
				</g>
			</g>
			<rect x="143" y="2400" fill="none" width="593" height="286.5"/>
			<text transform="matrix(1 0 0 1 143 2412.7256)"><tspan x="0" y="0" fill="#4D4D4D" font-family="'KlinicSlab-Light'" font-size="18">Thanks. This works great! One last question. I have added two buttons to the he</tspan><tspan x="578.3" y="0" fill="#4D4D4D" font-family="'KlinicSlab-Light'" font-size="18">-</tspan><tspan x="0" y="21.6" fill="#4D4D4D" font-family="'KlinicSlab-Light'" font-size="18">der.primary that trigger a search and a share panel to slide open below the main </tspan><tspan x="0" y="43.2" fill="#4D4D4D" font-family="'KlinicSlab-Light'" font-size="18">bar. It works perfectly except when I open and then close the hav slider. After I </tspan><tspan x="0" y="64.8" fill="#4D4D4D" font-family="'KlinicSlab-Light'" font-size="18">click off the nav to close it the click event on the search button fires automatically </tspan><tspan x="0" y="86.4" fill="#4D4D4D" font-family="'KlinicSlab-Light'" font-size="18">opening the search panel. If I open and close the nav menu again the search panel </tspan><tspan x="0" y="108" fill="#4D4D4D" font-family="'KlinicSlab-Light'" font-size="18">closes. It happens whether I use jQuery or straight up JavaScript. I think its happe</tspan><tspan x="583.3" y="108" fill="#4D4D4D" font-family="'KlinicSlab-Light'" font-size="18">-</tspan><tspan x="0" y="129.6" fill="#4D4D4D" font-family="'KlinicSlab-Light'" font-size="18">ning because when I click off the nav menu it treats the rest of the page as a </tspan><tspan x="0" y="151.2" fill="#4D4D4D" font-family="'KlinicSlab-Light'" font-size="18">“button” thus triggering the click event on the search button. Any clue how I might </tspan><tspan x="0" y="172.8" fill="#4D4D4D" font-family="'KlinicSlab-Light'" font-size="18">prevent this from happening? I’m think if only the nav button was hot when trying </tspan><tspan x="0" y="194.4" fill="#4D4D4D" font-family="'KlinicSlab-Light'" font-size="18">to close the nav menu it might solve the problem, but perhaps not the best for usa</tspan><tspan x="583.5" y="194.4" fill="#4D4D4D" font-family="'KlinicSlab-Light'" font-size="18">-</tspan><tspan x="0" y="216" fill="#4D4D4D" font-family="'KlinicSlab-Light'" font-size="18">bility.</tspan><tspan x="0" y="259.2" fill="#4D4D4D" font-family="'KlinicSlab-Light'" font-size="18">Thanks again for any light you can shed. E</tspan></text>
		</g>
	</g>
	<g>
		<defs>
			<circle id="SVGID_5_" cx="972.9" cy="615.7" r="55"/>
		</defs>
		<clipPath id="SVGID_6_">
			<use xlink:href="#SVGID_5_"  overflow="visible"/>
		</clipPath>
		<g clip-path="url(#SVGID_6_)">
			
				<image overflow="visible" width="876" height="960" xlink:href="../../../../Users/Jose Agustin Diaz/SkyDrive/PITIN/Blog/MockUp/1451495_357036887775103_1716363078_n.jpg"  transform="matrix(0.1256 0 0 0.1256 917.8873 554.9283)">
			</image>
		</g>
		<use xlink:href="#SVGID_5_"  overflow="visible" fill="none" stroke="#E6E6E6" stroke-width="2" stroke-miterlimit="10"/>
	</g>
	<text transform="matrix(1 0 0 1 864.873 703.5254)" fill="#FF7064" font-family="'KlinicSlab-Bold'" font-size="18">Víctor Agustín Díaz Méndez</text>
</g>
<g id="Pag2">
	<rect x="1766" fill="#E6E6E6" width="1170" height="2926"/>
	<g>
		<defs>
			<rect id="SVGID_7_" x="1766" y="60" width="1170" height="409.5"/>
		</defs>
		<clipPath id="SVGID_8_">
			<use xlink:href="#SVGID_7_"  overflow="visible"/>
		</clipPath>
		<g transform="matrix(1 0 0 1 -1.220703e-004 0)" clip-path="url(#SVGID_8_)">
			
				<image overflow="visible" width="1600" height="1190" xlink:href="../../../../Users/Jose Agustin Diaz/SkyDrive/PITIN/Blog/MockUp/7834487532_929534000c_h.jpg"  transform="matrix(0.739 0 0 0.739 1763 -109)">
			</image>
		</g>
	</g>
	<rect x="1766" y="171.5" opacity="0.5" fill="#67FFD3" width="591.5" height="200.9"/>
	<rect x="1766" y="171.5" opacity="0.8" fill="#FF7064" width="596.1" height="54.6"/>
	<rect x="1776" y="189.6" opacity="0.4" fill="none" width="553" height="36.6"/>
	<text transform="matrix(1 0 0 1 1776 212.2039)" fill="#FFFFFF" font-family="'KlinicSlab-Medium'" font-size="32">Iniciando una nueva etapa</text>
	<rect x="1766" fill="#FF7064" width="1170" height="60"/>
	<text transform="matrix(1 0 0 1 2281.4976 40)" fill="#F2F2F2" font-family="'KlinicSlab-BoldItalic'" font-size="32">Víctor A Díaz</text>
	<g id="Guias2">
	</g>
	<rect x="1776" y="246.4" fill="none" width="572" height="84.1"/>
	<text transform="matrix(1 0 0 1 1776 263.3573)"><tspan x="0" y="0" fill="#FFFFFF" font-family="'KlinicSlab-Medium'" font-size="24">One Republic - Counting Stars. Letra de la canción Coun</tspan><tspan x="560" y="0" fill="#FFFFFF" font-family="'KlinicSlab-Medium'" font-size="24">-</tspan><tspan x="0" y="28.8" fill="#FFFFFF" font-family="'KlinicSlab-Medium'" font-size="24">ting Stars traducida y en inglés: grandes éxitos traducidos </tspan><tspan x="0" y="57.6" fill="#FFFFFF" font-family="'KlinicSlab-Medium'" font-size="24">para afinar tu oído y mejorar tu inglés.</tspan></text>
	<g>
		<path fill="#FF7064" d="M2759,287.8h-231c-2.8,0-5-2.2-5-5V247c0-2.8,2.2-5,5-5h231c2.8,0,5,2.2,5,5v35.8
			C2764,285.5,2761.8,287.8,2759,287.8z"/>
		<g>
			<path fill="#333333" d="M2717.5,254.8c0-0.1-0.4-0.2-0.7-0.2c-0.6-0.1-1.3-0.2-1.8-0.3c-1-0.3-9.4-1.7-11.8-1.7
				c-5.8-0.1-8.8,0.3-10.6,0.6c-1.4,0.2-5.1,1-7.1,2.3c-0.4,0.2-0.7,0.5-0.9,0.7c-2.9-1-6.8-1-9.7,0c-0.2-0.2-0.5-0.5-0.9-0.8
				c-2-1.2-5.7-2.1-7.1-2.3c-1.8-0.3-4.9-0.7-10.6-0.6c-2.4,0.1-10.8,1.4-11.8,1.7c-0.4,0.1-1.2,0.3-1.8,0.3c-0.3,0-0.7,0.1-0.7,0.2
				c-0.1,0.3,0,2.6,0.1,2.9c0.1,0.3,0,0.3,0.3,0.4c0.5,0.1,0.7,0.2,1.3,0.6c0.3,0.2,1.4,1.3,2.1,2.1c0.1,0.1,0.1,0.4,0.2,0.4
				c0,0,0.3,0,0.6,0.1c0,0.4,0,0.9,0,1.4c0.3,3.7,1.9,7.6,4.1,9.6c1.9,1.7,5.4,2.9,9.6,2.9c3.6,0,6.7-0.5,8.8-2.4
				c2.8-2.4,4.3-5.2,5-9.7c0.2-1.2,0.2-2.2-0.1-3.2c0,0,0-0.1,0-0.1c0.7-0.1,1-0.5,1.1-0.6c0-0.1,0.2-0.6,0.2-1.2
				c2.7-0.8,6.1-0.8,8.8,0c0,0.6,0.2,1.1,0.2,1.2c0.1,0.1,0.4,0.5,1.1,0.6c0,0,0,0.1,0,0.1c-0.2,1-0.3,2.1-0.1,3.2
				c0.8,4.5,2.3,7.3,5,9.7c2.1,1.8,5.2,2.4,8.8,2.4c4.1,0,7.7-1.1,9.6-2.9c2.2-2.1,3.8-5.9,4.1-9.6c0-0.5,0-1,0-1.4
				c0.3,0,0.6,0,0.6-0.1c0.1,0,0.1-0.3,0.2-0.4c0.7-0.8,1.8-1.9,2.1-2.1c0.6-0.4,0.8-0.4,1.3-0.6c0.3-0.1,0.2-0.1,0.3-0.4
				C2717.5,257.3,2717.6,255.1,2717.5,254.8z M2673.7,263c-0.7,4.3-2.2,7-4.8,9.4c-2,1.8-5,2.3-8.4,2.3c-4,0-7.4-1.1-9.2-2.8
				c-2.1-2-3.6-5.7-3.9-9.3c0-0.5,0-1,0-1.4c0,0,0.1,0,0.1,0c0.1,0,0.2-0.1,0.2-0.1c0.3-3,1.8-4.3,2.4-4.7c2.3-1.9,6.5-2.2,10.2-2.2
				c3.9,0,6.9,0.5,9.9,1.9c1.9,0.9,2.7,1.8,3.2,3.3c0,0.1,0.2,0.2,0.3,0.3c0.1,0,0.1,0,0.1,0c0,0.1,0,0.1,0.1,0.2
				C2673.9,260.8,2673.9,261.8,2673.7,263z M2712.3,262.6c-0.3,3.6-1.8,7.3-3.9,9.3c-1.8,1.7-5.2,2.8-9.2,2.8
				c-3.4,0-6.5-0.5-8.4-2.3c-2.7-2.4-4.1-5-4.8-9.4c-0.2-1.1-0.2-2.2,0.1-3.1c0-0.1,0-0.2,0.1-0.2c0,0,0.1,0,0.1,0
				c0.1,0,0.3-0.1,0.3-0.3c0.4-1.6,1.3-2.4,3.2-3.3c2.9-1.4,6-1.8,9.9-1.9c3.7,0,7.9,0.2,10.2,2.2c0.5,0.5,2.1,1.7,2.4,4.7
				c0,0.1,0.1,0.1,0.2,0.1c0,0,0.1,0,0.1,0C2712.3,261.6,2712.3,262.1,2712.3,262.6z"/>
			<g opacity="0.5">
				<path fill="#F2F2F2" d="M2673.6,259.6c0,0-0.1,0-0.1,0c-0.1,0-0.3-0.1-0.3-0.3c-0.4-1.6-1.3-2.4-3.2-3.3
					c-2.9-1.4-5.9-1.8-9.7-1.9l7.5,18.9c0.4-0.2,0.7-0.5,1-0.7c2.7-2.4,4.1-5,4.8-9.4c0.2-1.1,0.2-2.2-0.1-3.1
					C2673.6,259.8,2673.6,259.7,2673.6,259.6z"/>
				<path fill="#F2F2F2" d="M2647.5,261c0,0.1-0.1,0.1-0.2,0.1c0,0-0.1,0-0.1,0c0,0.4,0,0.9,0,1.4c0.3,3.6,1.8,7.3,3.9,9.3
					c1.5,1.4,4,2.3,7.1,2.6l-9.2-17.4C2648.4,257.8,2647.7,259,2647.5,261z"/>
				<path fill="#F2F2F2" d="M2661.5,274.6c1.2,0,2.3-0.2,3.3-0.4l-8.9-16.5L2661.5,274.6z"/>
				<path fill="#F2F2F2" d="M2711.9,265.2l-3.4-9.6c-1.6-0.9-3.8-1.2-6.1-1.4c-0.1,0-0.1,0-0.2,0c-0.9,0-1.9-0.1-2.8-0.1
					c-0.2,0-0.4,0-0.6,0c-0.2,0-0.4,0-0.7,0c0,0-0.1,0-0.1,0c-3.3,0.1-5.9,0.6-8.5,1.8c-1.9,0.9-2.7,1.8-3.2,3.3
					c0,0.1-0.2,0.2-0.3,0.3c-0.1,0-0.1,0-0.1,0c0,0.1,0,0.1-0.1,0.2c-0.2,1-0.2,2-0.1,3.1c0.7,4.3,2.2,7,4.8,9.4
					c2,1.8,5,2.3,8.4,2.3c0.8,0,1.5,0,2.3-0.1c1.3-0.1,2.4-0.4,3.5-0.7l-4.8-15.7l7,14.7c0.3-0.2,0.6-0.4,0.9-0.6l-5.3-17.1
					l7.8,13.8C2711.1,267.7,2711.5,266.5,2711.9,265.2z"/>
			</g>
			<g opacity="0.8">
				<path fill="#FFFFFF" d="M2660.1,254.1c-1.8,0-3.6,0-5.3,0.3c-0.2,0-0.4,0.1-0.6,0.1c-1.7,0.3-3.2,0.9-4.3,1.8
					c-0.2,0.2-0.5,0.4-0.8,0.8l9.2,17.4c0.7,0.1,1.4,0.1,2.1,0.1c0.4,0,0.7,0,1.1,0l-5.6-16.9l8.9,16.5c1.1-0.2,2.2-0.6,3-1.1
					l-7.5-18.9C2660.2,254.1,2660.2,254.1,2660.1,254.1z"/>
				<path fill="#FFFFFF" d="M2712.3,261.2c0,0-0.1,0-0.1,0c-0.1,0-0.2-0.1-0.2-0.1c-0.3-3-1.8-4.3-2.4-4.7c-0.3-0.3-0.7-0.5-1.1-0.8
					l3.4,9.6c0.2-0.9,0.3-1.7,0.4-2.6C2712.3,262.1,2712.3,261.6,2712.3,261.2z"/>
				<path fill="#FFFFFF" d="M2708,272.1c0.1-0.1,0.2-0.2,0.3-0.3c0.8-0.8,1.6-1.8,2.2-3l-7.8-13.8L2708,272.1z"/>
				<path fill="#FFFFFF" d="M2704.8,273.8c0.8-0.3,1.6-0.6,2.3-1l-7-14.7L2704.8,273.8z"/>
			</g>
		</g>
		<text transform="matrix(1 0 0 1 2568.0012 274.3383)" fill="#FFFFFF" font-family="'KlinicSlab-Book'" font-size="36">Leer</text>
	</g>
	<g>
		<g>
			<text transform="matrix(1 0 0 1 2297.4077 364.147)" fill="#F2F2F2" font-family="'FiraSans-ExtraLight'" font-size="16">VicDiaz</text>
			<path fill="#F2F2F2" d="M2282.1,358.6c-0.5-0.1-0.5-1.4-0.5-1.4s1.4-1.4,1.7-3.3c0.8,0,1.3-2,0.5-2.7c0-0.7,1.1-5.8-4.1-5.8
				c-5.2,0-4.2,5-4.1,5.8c-0.8,0.7-0.3,2.7,0.5,2.7c0.3,1.9,1.7,3.3,1.7,3.3s0,1.3-0.5,1.4c-1.5,0.2-7.3,2.8-7.3,5.6h19.3
				C2289.4,361.4,2283.7,358.8,2282.1,358.6L2282.1,358.6z"/>
		</g>
		<g>
			<text transform="matrix(1 0 0 1 2160.4077 364.147)" fill="#F2F2F2" font-family="'FiraSans-ExtraLight'" font-size="16">4 Agosto 2014</text>
			<path fill="#F2F2F2" d="M2138.9,352.5h2.3v2.3h-2.3V352.5z M2142.4,352.5h2.3v2.3h-2.3V352.5z M2145.9,352.5h2.3v2.3h-2.3V352.5z
				 M2135.4,359.5h2.3v2.3h-2.3V359.5z M2138.9,359.5h2.3v2.3h-2.3V359.5z M2142.4,359.5h2.3v2.3h-2.3V359.5z M2138.9,356h2.3v2.3
				h-2.3V356z M2142.4,356h2.3v2.3h-2.3V356z M2145.9,356h2.3v2.3h-2.3V356z M2135.4,356h2.3v2.3h-2.3V356z M2148.2,345.5v1.2h-2.3
				v-1.2h-8.2v1.2h-2.3v-1.2h-2.3v18.6h17.5v-18.6H2148.2z M2149.4,363h-15.2v-12.8h15.2V363z"/>
		</g>
	</g>
	<g>
		<rect x="1766" y="489" fill="#F2F2F2" width="1170" height="315.2"/>
		<rect x="1766" y="489" fill="#2FCC9F" width="582" height="316.7"/>
		
			<image overflow="visible" width="1600" height="1190" xlink:href="../../../../Users/Jose Agustin Diaz/SkyDrive/PITIN/Blog/MockUp/7834487532_929534000c_h.jpg"  transform="matrix(0.3635 0 0 0.2493 1766 499)">
		</image>
		<rect x="2361" y="499" opacity="0.4" fill="none" width="553" height="36.6"/>
		<text transform="matrix(1 0 0 1 2460.428 521.6234)" fill="#CC3E62" font-family="'KlinicSlab-Medium'" font-size="32">Iniciando una nueva etapa</text>
		<rect x="2361" y="544.1" fill="none" width="565" height="84.1"/>
		<text transform="matrix(1 0 0 1 2393.0059 561.1064)"><tspan x="0" y="0" fill="#333333" font-family="'KlinicSlab-Medium'" font-size="24">One Republic - Counting Stars. Letra de la canción </tspan><tspan x="-27.8" y="28.8" fill="#333333" font-family="'KlinicSlab-Medium'" font-size="24">Counting Stars traducida y en inglés: grandes éxitos tra</tspan><tspan x="519.5" y="28.8" fill="#333333" font-family="'KlinicSlab-Medium'" font-size="24">-</tspan><tspan x="19.6" y="57.6" fill="#333333" font-family="'KlinicSlab-Medium'" font-size="24">ducidos para afinar tu oído y mejorar tu inglés.</tspan></text>
		<g>
			<g>
				<text transform="matrix(1 0 0 1 2699.678 796.7419)" fill="#666666" font-family="'FiraSans-ExtraLight'" font-size="16">VicDiaz</text>
				<path fill="#666666" d="M2684.4,791.2c-0.5-0.1-0.5-1.4-0.5-1.4s1.4-1.4,1.7-3.3c0.8,0,1.3-2,0.5-2.7c0-0.7,1.1-5.8-4.1-5.8
					s-4.2,5-4.1,5.8c-0.8,0.7-0.3,2.7,0.5,2.7c0.3,1.9,1.7,3.3,1.7,3.3s0,1.3-0.5,1.4c-1.5,0.2-7.3,2.8-7.3,5.6h19.3
					C2691.7,794,2685.9,791.4,2684.4,791.2L2684.4,791.2z"/>
			</g>
			<g>
				<text transform="matrix(1 0 0 1 2562.678 796.7419)" fill="#666666" font-family="'FiraSans-ExtraLight'" font-size="16">4 Agosto 2014</text>
				<path fill="#666666" d="M2541.2,785.1h2.3v2.3h-2.3V785.1z M2544.7,785.1h2.3v2.3h-2.3V785.1z M2548.2,785.1h2.3v2.3h-2.3V785.1
					z M2537.7,792.1h2.3v2.3h-2.3V792.1z M2541.2,792.1h2.3v2.3h-2.3V792.1z M2544.7,792.1h2.3v2.3h-2.3V792.1z M2541.2,788.6h2.3
					v2.3h-2.3V788.6z M2544.7,788.6h2.3v2.3h-2.3V788.6z M2548.2,788.6h2.3v2.3h-2.3V788.6z M2537.7,788.6h2.3v2.3h-2.3V788.6z
					 M2550.5,778.1v1.2h-2.3v-1.2h-8.2v1.2h-2.3v-1.2h-2.3v18.6h17.5v-18.6H2550.5z M2551.7,795.6h-15.2v-12.8h15.2V795.6z"/>
			</g>
		</g>
		<g>
			<path fill="#FF7064" d="M2729.3,708.6H2557c-2.8,0-5-2.2-5-5V679c0-2.8,2.2-5,5-5h172.3c2.8,0,5,2.2,5,5v24.6
				C2734.3,706.4,2732,708.6,2729.3,708.6z"/>
			<g>
				<path fill="#333333" d="M2699.1,683.7c0-0.1-0.3-0.1-0.5-0.2c-0.5,0-1-0.2-1.3-0.3c-0.8-0.2-7.1-1.2-8.9-1.3
					c-4.4-0.1-6.7,0.3-8,0.5c-1.1,0.2-3.8,0.8-5.3,1.7c-0.3,0.2-0.5,0.4-0.7,0.6c-2.2-0.8-5.1-0.8-7.3,0c-0.1-0.2-0.4-0.4-0.7-0.6
					c-1.5-0.9-4.3-1.6-5.3-1.7c-1.4-0.2-3.7-0.6-8-0.5c-1.8,0-8.1,1.1-8.9,1.3c-0.3,0.1-0.9,0.2-1.3,0.3c-0.3,0-0.5,0.1-0.5,0.2
					c-0.1,0.2,0,1.9,0,2.2c0,0.2,0,0.2,0.2,0.3c0.4,0.1,0.5,0.1,1,0.4c0.3,0.2,1,1,1.6,1.6c0.1,0.1,0,0.3,0.1,0.3c0,0,0.2,0,0.5,0
					c0,0.3,0,0.7,0,1.1c0.2,2.8,1.4,5.7,3.1,7.3c1.4,1.3,4.1,2.2,7.2,2.2c2.7,0,5.1-0.4,6.6-1.8c2.1-1.8,3.2-3.9,3.8-7.3
					c0.2-0.9,0.1-1.7,0-2.4c0,0,0-0.1,0-0.1c0.5,0,0.8-0.3,0.8-0.4c0-0.1,0.1-0.5,0.2-0.9c2.1-0.6,4.6-0.6,6.7,0
					c0,0.4,0.1,0.8,0.2,0.9c0,0.1,0.3,0.4,0.8,0.4c0,0,0,0.1,0,0.1c-0.2,0.7-0.2,1.6,0,2.4c0.6,3.4,1.7,5.5,3.8,7.3
					c1.6,1.4,3.9,1.8,6.6,1.8c3.1,0,5.8-0.9,7.2-2.2c1.7-1.6,2.8-4.5,3.1-7.3c0-0.4,0-0.7,0-1.1c0.2,0,0.5,0,0.5,0
					c0.1,0,0-0.2,0.1-0.3c0.6-0.6,1.3-1.4,1.6-1.6c0.5-0.3,0.6-0.3,1-0.4c0.2-0.1,0.2-0.1,0.2-0.3
					C2699.1,685.6,2699.2,683.9,2699.1,683.7z M2666,689.9c-0.6,3.3-1.6,5.3-3.7,7.1c-1.5,1.3-3.8,1.7-6.4,1.7c-3,0-5.6-0.8-7-2.1
					c-1.6-1.5-2.7-4.3-3-7c0-0.4,0-0.7,0-1c0,0,0.1,0,0.1,0c0.1,0,0.1,0,0.1-0.1c0.2-2.3,1.4-3.2,1.8-3.6c1.7-1.5,4.9-1.7,7.7-1.6
					c3,0,5.2,0.4,7.5,1.4c1.4,0.7,2.1,1.3,2.4,2.5c0,0.1,0.1,0.2,0.2,0.2c0,0,0.1,0,0.1,0c0,0.1,0,0.1,0,0.2
					C2666.1,688.2,2666.1,689,2666,689.9z M2695.1,689.6c-0.2,2.7-1.4,5.5-3,7c-1.4,1.3-4,2.1-7,2.1c-2.6,0-4.9-0.4-6.4-1.7
					c-2-1.8-3.1-3.8-3.7-7.1c-0.1-0.8-0.1-1.6,0-2.4c0-0.1,0-0.1,0-0.2c0,0,0.1,0,0.1,0c0.1,0,0.2-0.1,0.2-0.2
					c0.3-1.2,0.9-1.8,2.4-2.5c2.2-1,4.5-1.4,7.5-1.4c2.8,0,6,0.2,7.7,1.6c0.4,0.4,1.6,1.3,1.8,3.6c0,0.1,0.1,0.1,0.1,0.1
					c0,0,0.1,0,0.1,0C2695.2,688.8,2695.2,689.2,2695.1,689.6z"/>
				<g opacity="0.5">
					<path fill="#F2F2F2" d="M2665.9,687.3c0,0-0.1,0-0.1,0c-0.1,0-0.2-0.1-0.2-0.2c-0.3-1.2-0.9-1.8-2.4-2.5
						c-2.2-1-4.4-1.4-7.3-1.4l5.7,14.3c0.3-0.2,0.5-0.4,0.8-0.6c2-1.8,3.1-3.8,3.7-7.1c0.1-0.8,0.1-1.6,0-2.4
						C2665.9,687.4,2665.9,687.4,2665.9,687.3z"/>
					<path fill="#F2F2F2" d="M2646.2,688.4c0,0.1-0.1,0.1-0.1,0.1c0,0-0.1,0-0.1,0c0,0.3,0,0.7,0,1c0.2,2.7,1.4,5.5,3,7
						c1.1,1,3,1.8,5.4,2l-7-13.2C2646.9,686,2646.3,686.9,2646.2,688.4z"/>
					<path fill="#F2F2F2" d="M2656.7,698.6c0.9,0,1.7-0.1,2.5-0.3l-6.7-12.5L2656.7,698.6z"/>
					<path fill="#F2F2F2" d="M2694.8,691.5l-2.5-7.3c-1.2-0.7-2.9-0.9-4.6-1c-0.1,0-0.1,0-0.2,0c-0.7,0-1.4,0-2.1,0
						c-0.1,0-0.3,0-0.4,0c-0.2,0-0.3,0-0.5,0c0,0-0.1,0-0.1,0c-2.5,0.1-4.5,0.5-6.5,1.4c-1.4,0.7-2.1,1.3-2.4,2.5
						c0,0.1-0.1,0.2-0.2,0.2c0,0-0.1,0-0.1,0c0,0.1,0,0.1,0,0.2c-0.2,0.7-0.2,1.5,0,2.4c0.6,3.3,1.6,5.3,3.7,7.1
						c1.5,1.3,3.8,1.7,6.4,1.7c0.6,0,1.2,0,1.7-0.1c0.9-0.1,1.8-0.3,2.6-0.5l-3.6-11.9l5.3,11.1c0.2-0.1,0.5-0.3,0.7-0.5l-4-13
						l5.9,10.5C2694.2,693.4,2694.6,692.5,2694.8,691.5z"/>
				</g>
				<g opacity="0.8">
					<path fill="#FFFFFF" d="M2655.7,683.2c-1.3,0-2.7,0-4,0.2c-0.2,0-0.3,0.1-0.5,0.1c-1.3,0.2-2.4,0.6-3.2,1.3
						c-0.1,0.1-0.4,0.3-0.6,0.6l7,13.2c0.5,0.1,1.1,0.1,1.6,0.1c0.3,0,0.6,0,0.8,0l-4.3-12.7l6.7,12.5c0.9-0.2,1.6-0.5,2.3-0.9
						l-5.7-14.3C2655.8,683.2,2655.7,683.2,2655.7,683.2z"/>
					<path fill="#FFFFFF" d="M2695.2,688.5C2695.1,688.5,2695.1,688.5,2695.2,688.5c-0.2,0-0.2,0-0.2-0.1c-0.2-2.3-1.4-3.2-1.8-3.6
						c-0.3-0.2-0.5-0.4-0.9-0.6l2.5,7.3c0.2-0.6,0.3-1.3,0.3-2C2695.2,689.2,2695.2,688.8,2695.2,688.5z"/>
					<path fill="#FFFFFF" d="M2691.9,696.8c0.1-0.1,0.2-0.1,0.3-0.2c0.6-0.6,1.2-1.4,1.6-2.3l-5.9-10.5L2691.9,696.8z"/>
					<path fill="#FFFFFF" d="M2689.5,698c0.6-0.2,1.2-0.5,1.7-0.8l-5.3-11.1L2689.5,698z"/>
				</g>
			</g>
			<text transform="matrix(1 0 0 1 2586.0334 698.4566)" fill="#FFFFFF" font-family="'KlinicSlab-Book'" font-size="27.2259">Leer</text>
		</g>
	</g>
	<g>
		<rect x="1766" y="826" fill="#F2F2F2" width="1170" height="315.2"/>
		<rect x="2354" y="826" fill="#2FCC9F" width="582" height="316.7"/>
		
			<image overflow="visible" width="1600" height="1190" xlink:href="../../../../Users/Jose Agustin Diaz/SkyDrive/PITIN/Blog/MockUp/7834487532_929534000c_h.jpg"  transform="matrix(0.3635 0 0 0.2493 2354 836)">
		</image>
		<rect x="1774" y="836" opacity="0.4" fill="none" width="553" height="36.6"/>
		<text transform="matrix(1 0 0 1 1873.428 858.6234)" fill="#CC3E62" font-family="'KlinicSlab-Medium'" font-size="32">Iniciando una nueva etapa</text>
		<rect x="1774" y="881.1" fill="none" width="565" height="84.1"/>
		<text transform="matrix(1 0 0 1 1806.0059 898.1064)"><tspan x="0" y="0" fill="#333333" font-family="'KlinicSlab-Medium'" font-size="24">One Republic - Counting Stars. Letra de la canción </tspan><tspan x="-27.8" y="28.8" fill="#333333" font-family="'KlinicSlab-Medium'" font-size="24">Counting Stars traducida y en inglés: grandes éxitos tra</tspan><tspan x="519.5" y="28.8" fill="#333333" font-family="'KlinicSlab-Medium'" font-size="24">-</tspan><tspan x="19.6" y="57.6" fill="#333333" font-family="'KlinicSlab-Medium'" font-size="24">ducidos para afinar tu oído y mejorar tu inglés.</tspan></text>
		<g>
			<g>
				<text transform="matrix(1 0 0 1 2112.678 1133.7419)" fill="#666666" font-family="'FiraSans-ExtraLight'" font-size="16">VicDiaz</text>
				<path fill="#666666" d="M2097.4,1128.2c-0.5-0.1-0.5-1.4-0.5-1.4s1.4-1.4,1.7-3.3c0.8,0,1.3-2,0.5-2.7c0-0.7,1.1-5.8-4.1-5.8
					s-4.2,5-4.1,5.8c-0.8,0.7-0.3,2.7,0.5,2.7c0.3,1.9,1.7,3.3,1.7,3.3s0,1.3-0.5,1.4c-1.5,0.2-7.3,2.8-7.3,5.6h19.3
					C2104.7,1131,2098.9,1128.4,2097.4,1128.2L2097.4,1128.2z"/>
			</g>
			<g>
				<text transform="matrix(1 0 0 1 1975.678 1133.7419)" fill="#666666" font-family="'FiraSans-ExtraLight'" font-size="16">4 Agosto 2014</text>
				<path fill="#666666" d="M1954.2,1122.1h2.3v2.3h-2.3V1122.1z M1957.7,1122.1h2.3v2.3h-2.3V1122.1z M1961.2,1122.1h2.3v2.3h-2.3
					V1122.1z M1950.7,1129.1h2.3v2.3h-2.3V1129.1z M1954.2,1129.1h2.3v2.3h-2.3V1129.1z M1957.7,1129.1h2.3v2.3h-2.3V1129.1z
					 M1954.2,1125.6h2.3v2.3h-2.3V1125.6z M1957.7,1125.6h2.3v2.3h-2.3V1125.6z M1961.2,1125.6h2.3v2.3h-2.3V1125.6z M1950.7,1125.6
					h2.3v2.3h-2.3V1125.6z M1963.5,1115.1v1.2h-2.3v-1.2h-8.2v1.2h-2.3v-1.2h-2.3v18.6h17.5v-18.6H1963.5z M1964.7,1132.6h-15.2
					v-12.8h15.2V1132.6z"/>
			</g>
		</g>
		<g>
			<path fill="#FF7064" d="M2142.3,1045.6H1970c-2.8,0-5-2.2-5-5V1016c0-2.8,2.2-5,5-5h172.3c2.8,0,5,2.2,5,5v24.6
				C2147.3,1043.4,2145,1045.6,2142.3,1045.6z"/>
			<g>
				<path fill="#333333" d="M2112.1,1020.7c0-0.1-0.3-0.1-0.5-0.2c-0.5,0-1-0.2-1.3-0.3c-0.8-0.2-7.1-1.2-8.9-1.3
					c-4.4-0.1-6.7,0.3-8,0.5c-1.1,0.2-3.8,0.8-5.3,1.7c-0.3,0.2-0.5,0.4-0.7,0.6c-2.2-0.8-5.1-0.8-7.3,0c-0.1-0.2-0.4-0.4-0.7-0.6
					c-1.5-0.9-4.3-1.6-5.3-1.7c-1.4-0.2-3.7-0.6-8-0.5c-1.8,0-8.1,1.1-8.9,1.3c-0.3,0.1-0.9,0.2-1.3,0.3c-0.3,0-0.5,0.1-0.5,0.2
					c-0.1,0.2,0,1.9,0,2.2c0,0.2,0,0.2,0.2,0.3c0.4,0.1,0.5,0.1,1,0.4c0.3,0.2,1,1,1.6,1.6c0.1,0.1,0,0.3,0.1,0.3c0,0,0.2,0,0.5,0
					c0,0.3,0,0.7,0,1.1c0.2,2.8,1.4,5.7,3.1,7.3c1.4,1.3,4.1,2.2,7.2,2.2c2.7,0,5.1-0.4,6.6-1.8c2.1-1.8,3.2-3.9,3.8-7.3
					c0.2-0.9,0.1-1.7,0-2.4c0,0,0-0.1,0-0.1c0.5,0,0.8-0.3,0.8-0.4c0-0.1,0.1-0.5,0.2-0.9c2.1-0.6,4.6-0.6,6.7,0
					c0,0.4,0.1,0.8,0.2,0.9c0,0.1,0.3,0.4,0.8,0.4c0,0,0,0.1,0,0.1c-0.2,0.7-0.2,1.6,0,2.4c0.6,3.4,1.7,5.5,3.8,7.3
					c1.6,1.4,3.9,1.8,6.6,1.8c3.1,0,5.8-0.9,7.2-2.2c1.7-1.6,2.8-4.5,3.1-7.3c0-0.4,0-0.7,0-1.1c0.2,0,0.5,0,0.5,0
					c0.1,0,0-0.2,0.1-0.3c0.6-0.6,1.3-1.4,1.6-1.6c0.5-0.3,0.6-0.3,1-0.4c0.2-0.1,0.2-0.1,0.2-0.3
					C2112.1,1022.6,2112.2,1020.9,2112.1,1020.7z M2079,1026.9c-0.6,3.3-1.6,5.3-3.7,7.1c-1.5,1.3-3.8,1.7-6.4,1.7
					c-3,0-5.6-0.8-7-2.1c-1.6-1.5-2.7-4.3-3-7c0-0.4,0-0.7,0-1c0,0,0.1,0,0.1,0c0.1,0,0.1,0,0.1-0.1c0.2-2.3,1.4-3.2,1.8-3.6
					c1.7-1.5,4.9-1.7,7.7-1.6c3,0,5.2,0.4,7.5,1.4c1.4,0.7,2.1,1.3,2.4,2.5c0,0.1,0.1,0.2,0.2,0.2c0,0,0.1,0,0.1,0
					c0,0.1,0,0.1,0,0.2C2079.1,1025.2,2079.1,1026,2079,1026.9z M2108.1,1026.6c-0.2,2.7-1.4,5.5-3,7c-1.4,1.3-4,2.1-7,2.1
					c-2.6,0-4.9-0.4-6.4-1.7c-2-1.8-3.1-3.8-3.7-7.1c-0.1-0.8-0.1-1.6,0-2.4c0-0.1,0-0.1,0-0.2c0,0,0.1,0,0.1,0
					c0.1,0,0.2-0.1,0.2-0.2c0.3-1.2,0.9-1.8,2.4-2.5c2.2-1,4.5-1.4,7.5-1.4c2.8,0,6,0.2,7.7,1.6c0.4,0.4,1.6,1.3,1.8,3.6
					c0,0.1,0.1,0.1,0.1,0.1c0,0,0.1,0,0.1,0C2108.2,1025.8,2108.2,1026.2,2108.1,1026.6z"/>
				<g opacity="0.5">
					<path fill="#F2F2F2" d="M2078.9,1024.3c0,0-0.1,0-0.1,0c-0.1,0-0.2-0.1-0.2-0.2c-0.3-1.2-0.9-1.8-2.4-2.5
						c-2.2-1-4.4-1.4-7.3-1.4l5.7,14.3c0.3-0.2,0.5-0.4,0.8-0.6c2-1.8,3.1-3.8,3.7-7.1c0.1-0.8,0.1-1.6,0-2.4
						C2078.9,1024.4,2078.9,1024.4,2078.9,1024.3z"/>
					<path fill="#F2F2F2" d="M2059.2,1025.4c0,0.1-0.1,0.1-0.1,0.1c0,0-0.1,0-0.1,0c0,0.3,0,0.7,0,1c0.2,2.7,1.4,5.5,3,7
						c1.1,1,3,1.8,5.4,2l-7-13.2C2059.9,1023,2059.3,1023.9,2059.2,1025.4z"/>
					<path fill="#F2F2F2" d="M2069.7,1035.6c0.9,0,1.7-0.1,2.5-0.3l-6.7-12.5L2069.7,1035.6z"/>
					<path fill="#F2F2F2" d="M2107.8,1028.5l-2.5-7.3c-1.2-0.7-2.9-0.9-4.6-1c-0.1,0-0.1,0-0.2,0c-0.7,0-1.4,0-2.1,0
						c-0.1,0-0.3,0-0.4,0c-0.2,0-0.3,0-0.5,0c0,0-0.1,0-0.1,0c-2.5,0.1-4.5,0.5-6.5,1.4c-1.4,0.7-2.1,1.3-2.4,2.5
						c0,0.1-0.1,0.2-0.2,0.2c0,0-0.1,0-0.1,0c0,0.1,0,0.1,0,0.2c-0.2,0.7-0.2,1.5,0,2.4c0.6,3.3,1.6,5.3,3.7,7.1
						c1.5,1.3,3.8,1.7,6.4,1.7c0.6,0,1.2,0,1.7-0.1c0.9-0.1,1.8-0.3,2.6-0.5l-3.6-11.9l5.3,11.1c0.2-0.1,0.5-0.3,0.7-0.5l-4-13
						l5.9,10.5C2107.2,1030.4,2107.6,1029.5,2107.8,1028.5z"/>
				</g>
				<g opacity="0.8">
					<path fill="#FFFFFF" d="M2068.7,1020.2c-1.3,0-2.7,0-4,0.2c-0.2,0-0.3,0.1-0.5,0.1c-1.3,0.2-2.4,0.6-3.2,1.3
						c-0.1,0.1-0.4,0.3-0.6,0.6l7,13.2c0.5,0.1,1.1,0.1,1.6,0.1c0.3,0,0.6,0,0.8,0l-4.3-12.7l6.7,12.5c0.9-0.2,1.6-0.5,2.3-0.9
						l-5.7-14.3C2068.8,1020.2,2068.7,1020.2,2068.7,1020.2z"/>
					<path fill="#FFFFFF" d="M2108.2,1025.5C2108.1,1025.5,2108.1,1025.5,2108.2,1025.5c-0.2,0-0.2,0-0.2-0.1
						c-0.2-2.3-1.4-3.2-1.8-3.6c-0.3-0.2-0.5-0.4-0.9-0.6l2.5,7.3c0.2-0.6,0.3-1.3,0.3-2C2108.2,1026.2,2108.2,1025.8,2108.2,1025.5
						z"/>
					<path fill="#FFFFFF" d="M2104.9,1033.8c0.1-0.1,0.2-0.1,0.3-0.2c0.6-0.6,1.2-1.4,1.6-2.3l-5.9-10.5L2104.9,1033.8z"/>
					<path fill="#FFFFFF" d="M2102.5,1035c0.6-0.2,1.2-0.5,1.7-0.8l-5.3-11.1L2102.5,1035z"/>
				</g>
			</g>
			<text transform="matrix(1 0 0 1 1999.0333 1035.4565)" fill="#FFFFFF" font-family="'KlinicSlab-Book'" font-size="27.2259">Leer</text>
		</g>
	</g>
	<g>
		<rect x="1766" y="1163" fill="#F2F2F2" width="1170" height="315.2"/>
		<rect x="1766" y="1163" fill="#2FCC9F" width="582" height="316.7"/>
		
			<image overflow="visible" width="1600" height="1190" xlink:href="../../../../Users/Jose Agustin Diaz/SkyDrive/PITIN/Blog/MockUp/7834487532_929534000c_h.jpg"  transform="matrix(0.3635 0 0 0.2493 1766 1173)">
		</image>
		<rect x="2361" y="1173" opacity="0.4" fill="none" width="553" height="36.6"/>
		<text transform="matrix(1 0 0 1 2460.428 1195.6233)" fill="#CC3E62" font-family="'KlinicSlab-Medium'" font-size="32">Iniciando una nueva etapa</text>
		<rect x="2361" y="1218.1" fill="none" width="565" height="84.1"/>
		<text transform="matrix(1 0 0 1 2393.0059 1235.1064)"><tspan x="0" y="0" fill="#333333" font-family="'KlinicSlab-Medium'" font-size="24">One Republic - Counting Stars. Letra de la canción </tspan><tspan x="-27.8" y="28.8" fill="#333333" font-family="'KlinicSlab-Medium'" font-size="24">Counting Stars traducida y en inglés: grandes éxitos tra</tspan><tspan x="519.5" y="28.8" fill="#333333" font-family="'KlinicSlab-Medium'" font-size="24">-</tspan><tspan x="19.6" y="57.6" fill="#333333" font-family="'KlinicSlab-Medium'" font-size="24">ducidos para afinar tu oído y mejorar tu inglés.</tspan></text>
		<g>
			<g>
				<text transform="matrix(1 0 0 1 2699.678 1470.7419)" fill="#666666" font-family="'FiraSans-ExtraLight'" font-size="16">VicDiaz</text>
				<path fill="#666666" d="M2684.4,1465.2c-0.5-0.1-0.5-1.4-0.5-1.4s1.4-1.4,1.7-3.3c0.8,0,1.3-2,0.5-2.7c0-0.7,1.1-5.8-4.1-5.8
					s-4.2,5-4.1,5.8c-0.8,0.7-0.3,2.7,0.5,2.7c0.3,1.9,1.7,3.3,1.7,3.3s0,1.3-0.5,1.4c-1.5,0.2-7.3,2.8-7.3,5.6h19.3
					C2691.7,1468,2685.9,1465.4,2684.4,1465.2L2684.4,1465.2z"/>
			</g>
			<g>
				<text transform="matrix(1 0 0 1 2562.678 1470.7419)" fill="#666666" font-family="'FiraSans-ExtraLight'" font-size="16">4 Agosto 2014</text>
				<path fill="#666666" d="M2541.2,1459.1h2.3v2.3h-2.3V1459.1z M2544.7,1459.1h2.3v2.3h-2.3V1459.1z M2548.2,1459.1h2.3v2.3h-2.3
					V1459.1z M2537.7,1466.1h2.3v2.3h-2.3V1466.1z M2541.2,1466.1h2.3v2.3h-2.3V1466.1z M2544.7,1466.1h2.3v2.3h-2.3V1466.1z
					 M2541.2,1462.6h2.3v2.3h-2.3V1462.6z M2544.7,1462.6h2.3v2.3h-2.3V1462.6z M2548.2,1462.6h2.3v2.3h-2.3V1462.6z M2537.7,1462.6
					h2.3v2.3h-2.3V1462.6z M2550.5,1452.1v1.2h-2.3v-1.2h-8.2v1.2h-2.3v-1.2h-2.3v18.6h17.5v-18.6H2550.5z M2551.7,1469.6h-15.2
					v-12.8h15.2V1469.6z"/>
			</g>
		</g>
		<g>
			<path fill="#FF7064" d="M2729.3,1382.6H2557c-2.8,0-5-2.2-5-5V1353c0-2.8,2.2-5,5-5h172.3c2.8,0,5,2.2,5,5v24.6
				C2734.3,1380.4,2732,1382.6,2729.3,1382.6z"/>
			<g>
				<path fill="#333333" d="M2699.1,1357.7c0-0.1-0.3-0.1-0.5-0.2c-0.5,0-1-0.2-1.3-0.3c-0.8-0.2-7.1-1.2-8.9-1.3
					c-4.4-0.1-6.7,0.3-8,0.5c-1.1,0.2-3.8,0.8-5.3,1.7c-0.3,0.2-0.5,0.4-0.7,0.6c-2.2-0.8-5.1-0.8-7.3,0c-0.1-0.2-0.4-0.4-0.7-0.6
					c-1.5-0.9-4.3-1.6-5.3-1.7c-1.4-0.2-3.7-0.6-8-0.5c-1.8,0-8.1,1.1-8.9,1.3c-0.3,0.1-0.9,0.2-1.3,0.3c-0.3,0-0.5,0.1-0.5,0.2
					c-0.1,0.2,0,1.9,0,2.2c0,0.2,0,0.2,0.2,0.3c0.4,0.1,0.5,0.1,1,0.4c0.3,0.2,1,1,1.6,1.6c0.1,0.1,0,0.3,0.1,0.3c0,0,0.2,0,0.5,0
					c0,0.3,0,0.7,0,1.1c0.2,2.8,1.4,5.7,3.1,7.3c1.4,1.3,4.1,2.2,7.2,2.2c2.7,0,5.1-0.4,6.6-1.8c2.1-1.8,3.2-3.9,3.8-7.3
					c0.2-0.9,0.1-1.7,0-2.4c0,0,0-0.1,0-0.1c0.5,0,0.8-0.3,0.8-0.4c0-0.1,0.1-0.5,0.2-0.9c2.1-0.6,4.6-0.6,6.7,0
					c0,0.4,0.1,0.8,0.2,0.9c0,0.1,0.3,0.4,0.8,0.4c0,0,0,0.1,0,0.1c-0.2,0.7-0.2,1.6,0,2.4c0.6,3.4,1.7,5.5,3.8,7.3
					c1.6,1.4,3.9,1.8,6.6,1.8c3.1,0,5.8-0.9,7.2-2.2c1.7-1.6,2.8-4.5,3.1-7.3c0-0.4,0-0.7,0-1.1c0.2,0,0.5,0,0.5,0
					c0.1,0,0-0.2,0.1-0.3c0.6-0.6,1.3-1.4,1.6-1.6c0.5-0.3,0.6-0.3,1-0.4c0.2-0.1,0.2-0.1,0.2-0.3
					C2699.1,1359.6,2699.2,1357.9,2699.1,1357.7z M2666,1363.9c-0.6,3.3-1.6,5.3-3.7,7.1c-1.5,1.3-3.8,1.7-6.4,1.7
					c-3,0-5.6-0.8-7-2.1c-1.6-1.5-2.7-4.3-3-7c0-0.4,0-0.7,0-1c0,0,0.1,0,0.1,0c0.1,0,0.1,0,0.1-0.1c0.2-2.3,1.4-3.2,1.8-3.6
					c1.7-1.5,4.9-1.7,7.7-1.6c3,0,5.2,0.4,7.5,1.4c1.4,0.7,2.1,1.3,2.4,2.5c0,0.1,0.1,0.2,0.2,0.2c0,0,0.1,0,0.1,0
					c0,0.1,0,0.1,0,0.2C2666.1,1362.2,2666.1,1363,2666,1363.9z M2695.1,1363.6c-0.2,2.7-1.4,5.5-3,7c-1.4,1.3-4,2.1-7,2.1
					c-2.6,0-4.9-0.4-6.4-1.7c-2-1.8-3.1-3.8-3.7-7.1c-0.1-0.8-0.1-1.6,0-2.4c0-0.1,0-0.1,0-0.2c0,0,0.1,0,0.1,0
					c0.1,0,0.2-0.1,0.2-0.2c0.3-1.2,0.9-1.8,2.4-2.5c2.2-1,4.5-1.4,7.5-1.4c2.8,0,6,0.2,7.7,1.6c0.4,0.4,1.6,1.3,1.8,3.6
					c0,0.1,0.1,0.1,0.1,0.1c0,0,0.1,0,0.1,0C2695.2,1362.8,2695.2,1363.2,2695.1,1363.6z"/>
				<g opacity="0.5">
					<path fill="#F2F2F2" d="M2665.9,1361.3c0,0-0.1,0-0.1,0c-0.1,0-0.2-0.1-0.2-0.2c-0.3-1.2-0.9-1.8-2.4-2.5
						c-2.2-1-4.4-1.4-7.3-1.4l5.7,14.3c0.3-0.2,0.5-0.4,0.8-0.6c2-1.8,3.1-3.8,3.7-7.1c0.1-0.8,0.1-1.6,0-2.4
						C2665.9,1361.4,2665.9,1361.4,2665.9,1361.3z"/>
					<path fill="#F2F2F2" d="M2646.2,1362.4c0,0.1-0.1,0.1-0.1,0.1c0,0-0.1,0-0.1,0c0,0.3,0,0.7,0,1c0.2,2.7,1.4,5.5,3,7
						c1.1,1,3,1.8,5.4,2l-7-13.2C2646.9,1360,2646.3,1360.9,2646.2,1362.4z"/>
					<path fill="#F2F2F2" d="M2656.7,1372.6c0.9,0,1.7-0.1,2.5-0.3l-6.7-12.5L2656.7,1372.6z"/>
					<path fill="#F2F2F2" d="M2694.8,1365.5l-2.5-7.3c-1.2-0.7-2.9-0.9-4.6-1c-0.1,0-0.1,0-0.2,0c-0.7,0-1.4,0-2.1,0
						c-0.1,0-0.3,0-0.4,0c-0.2,0-0.3,0-0.5,0c0,0-0.1,0-0.1,0c-2.5,0.1-4.5,0.5-6.5,1.4c-1.4,0.7-2.1,1.3-2.4,2.5
						c0,0.1-0.1,0.2-0.2,0.2c0,0-0.1,0-0.1,0c0,0.1,0,0.1,0,0.2c-0.2,0.7-0.2,1.5,0,2.4c0.6,3.3,1.6,5.3,3.7,7.1
						c1.5,1.3,3.8,1.7,6.4,1.7c0.6,0,1.2,0,1.7-0.1c0.9-0.1,1.8-0.3,2.6-0.5l-3.6-11.9l5.3,11.1c0.2-0.1,0.5-0.3,0.7-0.5l-4-13
						l5.9,10.5C2694.2,1367.4,2694.6,1366.5,2694.8,1365.5z"/>
				</g>
				<g opacity="0.8">
					<path fill="#FFFFFF" d="M2655.7,1357.2c-1.3,0-2.7,0-4,0.2c-0.2,0-0.3,0.1-0.5,0.1c-1.3,0.2-2.4,0.6-3.2,1.3
						c-0.1,0.1-0.4,0.3-0.6,0.6l7,13.2c0.5,0.1,1.1,0.1,1.6,0.1c0.3,0,0.6,0,0.8,0l-4.3-12.7l6.7,12.5c0.9-0.2,1.6-0.5,2.3-0.9
						l-5.7-14.3C2655.8,1357.2,2655.7,1357.2,2655.7,1357.2z"/>
					<path fill="#FFFFFF" d="M2695.2,1362.5C2695.1,1362.5,2695.1,1362.5,2695.2,1362.5c-0.2,0-0.2,0-0.2-0.1
						c-0.2-2.3-1.4-3.2-1.8-3.6c-0.3-0.2-0.5-0.4-0.9-0.6l2.5,7.3c0.2-0.6,0.3-1.3,0.3-2C2695.2,1363.2,2695.2,1362.8,2695.2,1362.5
						z"/>
					<path fill="#FFFFFF" d="M2691.9,1370.8c0.1-0.1,0.2-0.1,0.3-0.2c0.6-0.6,1.2-1.4,1.6-2.3l-5.9-10.5L2691.9,1370.8z"/>
					<path fill="#FFFFFF" d="M2689.5,1372c0.6-0.2,1.2-0.5,1.7-0.8l-5.3-11.1L2689.5,1372z"/>
				</g>
			</g>
			<text transform="matrix(1 0 0 1 2586.0334 1372.4565)" fill="#FFFFFF" font-family="'KlinicSlab-Book'" font-size="27.2259">Leer</text>
		</g>
	</g>
	<g>
		<rect x="1766" y="1500" fill="#F2F2F2" width="1170" height="315.2"/>
		<rect x="2354" y="1500" fill="#2FCC9F" width="582" height="316.7"/>
		
			<image overflow="visible" width="1600" height="1190" xlink:href="../../../../Users/Jose Agustin Diaz/SkyDrive/PITIN/Blog/MockUp/7834487532_929534000c_h.jpg"  transform="matrix(0.3635 0 0 0.2493 2354 1510)">
		</image>
		<rect x="1774" y="1510" opacity="0.4" fill="none" width="553" height="36.6"/>
		<text transform="matrix(1 0 0 1 1873.428 1532.6234)" fill="#CC3E62" font-family="'KlinicSlab-Medium'" font-size="32">Iniciando una nueva etapa</text>
		<rect x="1774" y="1555.1" fill="none" width="565" height="84.1"/>
		<text transform="matrix(1 0 0 1 1806.0059 1572.1064)"><tspan x="0" y="0" fill="#333333" font-family="'KlinicSlab-Medium'" font-size="24">One Republic - Counting Stars. Letra de la canción </tspan><tspan x="-27.8" y="28.8" fill="#333333" font-family="'KlinicSlab-Medium'" font-size="24">Counting Stars traducida y en inglés: grandes éxitos tra</tspan><tspan x="519.5" y="28.8" fill="#333333" font-family="'KlinicSlab-Medium'" font-size="24">-</tspan><tspan x="19.6" y="57.6" fill="#333333" font-family="'KlinicSlab-Medium'" font-size="24">ducidos para afinar tu oído y mejorar tu inglés.</tspan></text>
		<g>
			<g>
				<text transform="matrix(1 0 0 1 2112.678 1807.7419)" fill="#666666" font-family="'FiraSans-ExtraLight'" font-size="16">VicDiaz</text>
				<path fill="#666666" d="M2097.4,1802.2c-0.5-0.1-0.5-1.4-0.5-1.4s1.4-1.4,1.7-3.3c0.8,0,1.3-2,0.5-2.7c0-0.7,1.1-5.8-4.1-5.8
					s-4.2,5-4.1,5.8c-0.8,0.7-0.3,2.7,0.5,2.7c0.3,1.9,1.7,3.3,1.7,3.3s0,1.3-0.5,1.4c-1.5,0.2-7.3,2.8-7.3,5.6h19.3
					C2104.7,1805,2098.9,1802.4,2097.4,1802.2L2097.4,1802.2z"/>
			</g>
			<g>
				<text transform="matrix(1 0 0 1 1975.678 1807.7419)" fill="#666666" font-family="'FiraSans-ExtraLight'" font-size="16">4 Agosto 2014</text>
				<path fill="#666666" d="M1954.2,1796.1h2.3v2.3h-2.3V1796.1z M1957.7,1796.1h2.3v2.3h-2.3V1796.1z M1961.2,1796.1h2.3v2.3h-2.3
					V1796.1z M1950.7,1803.1h2.3v2.3h-2.3V1803.1z M1954.2,1803.1h2.3v2.3h-2.3V1803.1z M1957.7,1803.1h2.3v2.3h-2.3V1803.1z
					 M1954.2,1799.6h2.3v2.3h-2.3V1799.6z M1957.7,1799.6h2.3v2.3h-2.3V1799.6z M1961.2,1799.6h2.3v2.3h-2.3V1799.6z M1950.7,1799.6
					h2.3v2.3h-2.3V1799.6z M1963.5,1789.1v1.2h-2.3v-1.2h-8.2v1.2h-2.3v-1.2h-2.3v18.6h17.5v-18.6H1963.5z M1964.7,1806.6h-15.2
					v-12.8h15.2V1806.6z"/>
			</g>
		</g>
		<g>
			<path fill="#FF7064" d="M2142.3,1719.6H1970c-2.8,0-5-2.2-5-5V1690c0-2.8,2.2-5,5-5h172.3c2.8,0,5,2.2,5,5v24.6
				C2147.3,1717.4,2145,1719.6,2142.3,1719.6z"/>
			<g>
				<path fill="#333333" d="M2112.1,1694.7c0-0.1-0.3-0.1-0.5-0.2c-0.5,0-1-0.2-1.3-0.3c-0.8-0.2-7.1-1.2-8.9-1.3
					c-4.4-0.1-6.7,0.3-8,0.5c-1.1,0.2-3.8,0.8-5.3,1.7c-0.3,0.2-0.5,0.4-0.7,0.6c-2.2-0.8-5.1-0.8-7.3,0c-0.1-0.2-0.4-0.4-0.7-0.6
					c-1.5-0.9-4.3-1.6-5.3-1.7c-1.4-0.2-3.7-0.6-8-0.5c-1.8,0-8.1,1.1-8.9,1.3c-0.3,0.1-0.9,0.2-1.3,0.3c-0.3,0-0.5,0.1-0.5,0.2
					c-0.1,0.2,0,1.9,0,2.2c0,0.2,0,0.2,0.2,0.3c0.4,0.1,0.5,0.1,1,0.4c0.3,0.2,1,1,1.6,1.6c0.1,0.1,0,0.3,0.1,0.3c0,0,0.2,0,0.5,0
					c0,0.3,0,0.7,0,1.1c0.2,2.8,1.4,5.7,3.1,7.3c1.4,1.3,4.1,2.2,7.2,2.2c2.7,0,5.1-0.4,6.6-1.8c2.1-1.8,3.2-3.9,3.8-7.3
					c0.2-0.9,0.1-1.7,0-2.4c0,0,0-0.1,0-0.1c0.5,0,0.8-0.3,0.8-0.4c0-0.1,0.1-0.5,0.2-0.9c2.1-0.6,4.6-0.6,6.7,0
					c0,0.4,0.1,0.8,0.2,0.9c0,0.1,0.3,0.4,0.8,0.4c0,0,0,0.1,0,0.1c-0.2,0.7-0.2,1.6,0,2.4c0.6,3.4,1.7,5.5,3.8,7.3
					c1.6,1.4,3.9,1.8,6.6,1.8c3.1,0,5.8-0.9,7.2-2.2c1.7-1.6,2.8-4.5,3.1-7.3c0-0.4,0-0.7,0-1.1c0.2,0,0.5,0,0.5,0
					c0.1,0,0-0.2,0.1-0.3c0.6-0.6,1.3-1.4,1.6-1.6c0.5-0.3,0.6-0.3,1-0.4c0.2-0.1,0.2-0.1,0.2-0.3
					C2112.1,1696.6,2112.2,1694.9,2112.1,1694.7z M2079,1700.9c-0.6,3.3-1.6,5.3-3.7,7.1c-1.5,1.3-3.8,1.7-6.4,1.7
					c-3,0-5.6-0.8-7-2.1c-1.6-1.5-2.7-4.3-3-7c0-0.4,0-0.7,0-1c0,0,0.1,0,0.1,0c0.1,0,0.1,0,0.1-0.1c0.2-2.3,1.4-3.2,1.8-3.6
					c1.7-1.5,4.9-1.7,7.7-1.6c3,0,5.2,0.4,7.5,1.4c1.4,0.7,2.1,1.3,2.4,2.5c0,0.1,0.1,0.2,0.2,0.2c0,0,0.1,0,0.1,0
					c0,0.1,0,0.1,0,0.2C2079.1,1699.2,2079.1,1700,2079,1700.9z M2108.1,1700.6c-0.2,2.7-1.4,5.5-3,7c-1.4,1.3-4,2.1-7,2.1
					c-2.6,0-4.9-0.4-6.4-1.7c-2-1.8-3.1-3.8-3.7-7.1c-0.1-0.8-0.1-1.6,0-2.4c0-0.1,0-0.1,0-0.2c0,0,0.1,0,0.1,0
					c0.1,0,0.2-0.1,0.2-0.2c0.3-1.2,0.9-1.8,2.4-2.5c2.2-1,4.5-1.4,7.5-1.4c2.8,0,6,0.2,7.7,1.6c0.4,0.4,1.6,1.3,1.8,3.6
					c0,0.1,0.1,0.1,0.1,0.1c0,0,0.1,0,0.1,0C2108.2,1699.8,2108.2,1700.2,2108.1,1700.6z"/>
				<g opacity="0.5">
					<path fill="#F2F2F2" d="M2078.9,1698.3c0,0-0.1,0-0.1,0c-0.1,0-0.2-0.1-0.2-0.2c-0.3-1.2-0.9-1.8-2.4-2.5
						c-2.2-1-4.4-1.4-7.3-1.4l5.7,14.3c0.3-0.2,0.5-0.4,0.8-0.6c2-1.8,3.1-3.8,3.7-7.1c0.1-0.8,0.1-1.6,0-2.4
						C2078.9,1698.4,2078.9,1698.4,2078.9,1698.3z"/>
					<path fill="#F2F2F2" d="M2059.2,1699.4c0,0.1-0.1,0.1-0.1,0.1c0,0-0.1,0-0.1,0c0,0.3,0,0.7,0,1c0.2,2.7,1.4,5.5,3,7
						c1.1,1,3,1.8,5.4,2l-7-13.2C2059.9,1697,2059.3,1697.9,2059.2,1699.4z"/>
					<path fill="#F2F2F2" d="M2069.7,1709.6c0.9,0,1.7-0.1,2.5-0.3l-6.7-12.5L2069.7,1709.6z"/>
					<path fill="#F2F2F2" d="M2107.8,1702.5l-2.5-7.3c-1.2-0.7-2.9-0.9-4.6-1c-0.1,0-0.1,0-0.2,0c-0.7,0-1.4,0-2.1,0
						c-0.1,0-0.3,0-0.4,0c-0.2,0-0.3,0-0.5,0c0,0-0.1,0-0.1,0c-2.5,0.1-4.5,0.5-6.5,1.4c-1.4,0.7-2.1,1.3-2.4,2.5
						c0,0.1-0.1,0.2-0.2,0.2c0,0-0.1,0-0.1,0c0,0.1,0,0.1,0,0.2c-0.2,0.7-0.2,1.5,0,2.4c0.6,3.3,1.6,5.3,3.7,7.1
						c1.5,1.3,3.8,1.7,6.4,1.7c0.6,0,1.2,0,1.7-0.1c0.9-0.1,1.8-0.3,2.6-0.5l-3.6-11.9l5.3,11.1c0.2-0.1,0.5-0.3,0.7-0.5l-4-13
						l5.9,10.5C2107.2,1704.4,2107.6,1703.5,2107.8,1702.5z"/>
				</g>
				<g opacity="0.8">
					<path fill="#FFFFFF" d="M2068.7,1694.2c-1.3,0-2.7,0-4,0.2c-0.2,0-0.3,0.1-0.5,0.1c-1.3,0.2-2.4,0.6-3.2,1.3
						c-0.1,0.1-0.4,0.3-0.6,0.6l7,13.2c0.5,0.1,1.1,0.1,1.6,0.1c0.3,0,0.6,0,0.8,0l-4.3-12.7l6.7,12.5c0.9-0.2,1.6-0.5,2.3-0.9
						l-5.7-14.3C2068.8,1694.2,2068.7,1694.2,2068.7,1694.2z"/>
					<path fill="#FFFFFF" d="M2108.2,1699.5C2108.1,1699.5,2108.1,1699.5,2108.2,1699.5c-0.2,0-0.2,0-0.2-0.1
						c-0.2-2.3-1.4-3.2-1.8-3.6c-0.3-0.2-0.5-0.4-0.9-0.6l2.5,7.3c0.2-0.6,0.3-1.3,0.3-2C2108.2,1700.2,2108.2,1699.8,2108.2,1699.5
						z"/>
					<path fill="#FFFFFF" d="M2104.9,1707.8c0.1-0.1,0.2-0.1,0.3-0.2c0.6-0.6,1.2-1.4,1.6-2.3l-5.9-10.5L2104.9,1707.8z"/>
					<path fill="#FFFFFF" d="M2102.5,1709c0.6-0.2,1.2-0.5,1.7-0.8l-5.3-11.1L2102.5,1709z"/>
				</g>
			</g>
			<text transform="matrix(1 0 0 1 1999.0333 1709.4565)" fill="#FFFFFF" font-family="'KlinicSlab-Book'" font-size="27.2259">Leer</text>
		</g>
	</g>
	<g>
		<rect x="1766" y="1837" fill="#F2F2F2" width="1170" height="315.2"/>
		<rect x="1766" y="1837" fill="#2FCC9F" width="582" height="316.7"/>
		
			<image overflow="visible" width="1600" height="1190" xlink:href="../../../../Users/Jose Agustin Diaz/SkyDrive/PITIN/Blog/MockUp/7834487532_929534000c_h.jpg"  transform="matrix(0.3635 0 0 0.2493 1766 1847)">
		</image>
		<rect x="2361" y="1847" opacity="0.4" fill="none" width="553" height="36.6"/>
		<text transform="matrix(1 0 0 1 2460.428 1869.6233)" fill="#CC3E62" font-family="'KlinicSlab-Medium'" font-size="32">Iniciando una nueva etapa</text>
		<rect x="2361" y="1892.1" fill="none" width="565" height="84.1"/>
		<text transform="matrix(1 0 0 1 2393.0059 1909.1064)"><tspan x="0" y="0" fill="#333333" font-family="'KlinicSlab-Medium'" font-size="24">One Republic - Counting Stars. Letra de la canción </tspan><tspan x="-27.8" y="28.8" fill="#333333" font-family="'KlinicSlab-Medium'" font-size="24">Counting Stars traducida y en inglés: grandes éxitos tra</tspan><tspan x="519.5" y="28.8" fill="#333333" font-family="'KlinicSlab-Medium'" font-size="24">-</tspan><tspan x="19.6" y="57.6" fill="#333333" font-family="'KlinicSlab-Medium'" font-size="24">ducidos para afinar tu oído y mejorar tu inglés.</tspan></text>
		<g>
			<g>
				<text transform="matrix(1 0 0 1 2699.678 2144.7419)" fill="#666666" font-family="'FiraSans-ExtraLight'" font-size="16">VicDiaz</text>
				<path fill="#666666" d="M2684.4,2139.2c-0.5-0.1-0.5-1.4-0.5-1.4s1.4-1.4,1.7-3.3c0.8,0,1.3-2,0.5-2.7c0-0.7,1.1-5.8-4.1-5.8
					s-4.2,5-4.1,5.8c-0.8,0.7-0.3,2.7,0.5,2.7c0.3,1.9,1.7,3.3,1.7,3.3s0,1.3-0.5,1.4c-1.5,0.2-7.3,2.8-7.3,5.6h19.3
					C2691.7,2142,2685.9,2139.4,2684.4,2139.2L2684.4,2139.2z"/>
			</g>
			<g>
				<text transform="matrix(1 0 0 1 2562.678 2144.7419)" fill="#666666" font-family="'FiraSans-ExtraLight'" font-size="16">4 Agosto 2014</text>
				<path fill="#666666" d="M2541.2,2133.1h2.3v2.3h-2.3V2133.1z M2544.7,2133.1h2.3v2.3h-2.3V2133.1z M2548.2,2133.1h2.3v2.3h-2.3
					V2133.1z M2537.7,2140.1h2.3v2.3h-2.3V2140.1z M2541.2,2140.1h2.3v2.3h-2.3V2140.1z M2544.7,2140.1h2.3v2.3h-2.3V2140.1z
					 M2541.2,2136.6h2.3v2.3h-2.3V2136.6z M2544.7,2136.6h2.3v2.3h-2.3V2136.6z M2548.2,2136.6h2.3v2.3h-2.3V2136.6z M2537.7,2136.6
					h2.3v2.3h-2.3V2136.6z M2550.5,2126.1v1.2h-2.3v-1.2h-8.2v1.2h-2.3v-1.2h-2.3v18.6h17.5v-18.6H2550.5z M2551.7,2143.6h-15.2
					v-12.8h15.2V2143.6z"/>
			</g>
		</g>
		<g>
			<path fill="#FF7064" d="M2729.3,2056.6H2557c-2.8,0-5-2.2-5-5V2027c0-2.8,2.2-5,5-5h172.3c2.8,0,5,2.2,5,5v24.6
				C2734.3,2054.4,2732,2056.6,2729.3,2056.6z"/>
			<g>
				<path fill="#333333" d="M2699.1,2031.7c0-0.1-0.3-0.1-0.5-0.2c-0.5,0-1-0.2-1.3-0.3c-0.8-0.2-7.1-1.2-8.9-1.3
					c-4.4-0.1-6.7,0.3-8,0.5c-1.1,0.2-3.8,0.8-5.3,1.7c-0.3,0.2-0.5,0.4-0.7,0.6c-2.2-0.8-5.1-0.8-7.3,0c-0.1-0.2-0.4-0.4-0.7-0.6
					c-1.5-0.9-4.3-1.6-5.3-1.7c-1.4-0.2-3.7-0.6-8-0.5c-1.8,0-8.1,1.1-8.9,1.3c-0.3,0.1-0.9,0.2-1.3,0.3c-0.3,0-0.5,0.1-0.5,0.2
					c-0.1,0.2,0,1.9,0,2.2c0,0.2,0,0.2,0.2,0.3c0.4,0.1,0.5,0.1,1,0.4c0.3,0.2,1,1,1.6,1.6c0.1,0.1,0,0.3,0.1,0.3c0,0,0.2,0,0.5,0
					c0,0.3,0,0.7,0,1.1c0.2,2.8,1.4,5.7,3.1,7.3c1.4,1.3,4.1,2.2,7.2,2.2c2.7,0,5.1-0.4,6.6-1.8c2.1-1.8,3.2-3.9,3.8-7.3
					c0.2-0.9,0.1-1.7,0-2.4c0,0,0-0.1,0-0.1c0.5,0,0.8-0.3,0.8-0.4c0-0.1,0.1-0.5,0.2-0.9c2.1-0.6,4.6-0.6,6.7,0
					c0,0.4,0.1,0.8,0.2,0.9c0,0.1,0.3,0.4,0.8,0.4c0,0,0,0.1,0,0.1c-0.2,0.7-0.2,1.6,0,2.4c0.6,3.4,1.7,5.5,3.8,7.3
					c1.6,1.4,3.9,1.8,6.6,1.8c3.1,0,5.8-0.9,7.2-2.2c1.7-1.6,2.8-4.5,3.1-7.3c0-0.4,0-0.7,0-1.1c0.2,0,0.5,0,0.5,0
					c0.1,0,0-0.2,0.1-0.3c0.6-0.6,1.3-1.4,1.6-1.6c0.5-0.3,0.6-0.3,1-0.4c0.2-0.1,0.2-0.1,0.2-0.3
					C2699.1,2033.6,2699.2,2031.9,2699.1,2031.7z M2666,2037.9c-0.6,3.3-1.6,5.3-3.7,7.1c-1.5,1.3-3.8,1.7-6.4,1.7
					c-3,0-5.6-0.8-7-2.1c-1.6-1.5-2.7-4.3-3-7c0-0.4,0-0.7,0-1c0,0,0.1,0,0.1,0c0.1,0,0.1,0,0.1-0.1c0.2-2.3,1.4-3.2,1.8-3.6
					c1.7-1.5,4.9-1.7,7.7-1.6c3,0,5.2,0.4,7.5,1.4c1.4,0.7,2.1,1.3,2.4,2.5c0,0.1,0.1,0.2,0.2,0.2c0,0,0.1,0,0.1,0
					c0,0.1,0,0.1,0,0.2C2666.1,2036.2,2666.1,2037,2666,2037.9z M2695.1,2037.6c-0.2,2.7-1.4,5.5-3,7c-1.4,1.3-4,2.1-7,2.1
					c-2.6,0-4.9-0.4-6.4-1.7c-2-1.8-3.1-3.8-3.7-7.1c-0.1-0.8-0.1-1.6,0-2.4c0-0.1,0-0.1,0-0.2c0,0,0.1,0,0.1,0
					c0.1,0,0.2-0.1,0.2-0.2c0.3-1.2,0.9-1.8,2.4-2.5c2.2-1,4.5-1.4,7.5-1.4c2.8,0,6,0.2,7.7,1.6c0.4,0.4,1.6,1.3,1.8,3.6
					c0,0.1,0.1,0.1,0.1,0.1c0,0,0.1,0,0.1,0C2695.2,2036.8,2695.2,2037.2,2695.1,2037.6z"/>
				<g opacity="0.5">
					<path fill="#F2F2F2" d="M2665.9,2035.3c0,0-0.1,0-0.1,0c-0.1,0-0.2-0.1-0.2-0.2c-0.3-1.2-0.9-1.8-2.4-2.5
						c-2.2-1-4.4-1.4-7.3-1.4l5.7,14.3c0.3-0.2,0.5-0.4,0.8-0.6c2-1.8,3.1-3.8,3.7-7.1c0.1-0.8,0.1-1.6,0-2.4
						C2665.9,2035.4,2665.9,2035.4,2665.9,2035.3z"/>
					<path fill="#F2F2F2" d="M2646.2,2036.4c0,0.1-0.1,0.1-0.1,0.1c0,0-0.1,0-0.1,0c0,0.3,0,0.7,0,1c0.2,2.7,1.4,5.5,3,7
						c1.1,1,3,1.8,5.4,2l-7-13.2C2646.9,2034,2646.3,2034.9,2646.2,2036.4z"/>
					<path fill="#F2F2F2" d="M2656.7,2046.6c0.9,0,1.7-0.1,2.5-0.3l-6.7-12.5L2656.7,2046.6z"/>
					<path fill="#F2F2F2" d="M2694.8,2039.5l-2.5-7.3c-1.2-0.7-2.9-0.9-4.6-1c-0.1,0-0.1,0-0.2,0c-0.7,0-1.4,0-2.1,0
						c-0.1,0-0.3,0-0.4,0c-0.2,0-0.3,0-0.5,0c0,0-0.1,0-0.1,0c-2.5,0.1-4.5,0.5-6.5,1.4c-1.4,0.7-2.1,1.3-2.4,2.5
						c0,0.1-0.1,0.2-0.2,0.2c0,0-0.1,0-0.1,0c0,0.1,0,0.1,0,0.2c-0.2,0.7-0.2,1.5,0,2.4c0.6,3.3,1.6,5.3,3.7,7.1
						c1.5,1.3,3.8,1.7,6.4,1.7c0.6,0,1.2,0,1.7-0.1c0.9-0.1,1.8-0.3,2.6-0.5l-3.6-11.9l5.3,11.1c0.2-0.1,0.5-0.3,0.7-0.5l-4-13
						l5.9,10.5C2694.2,2041.4,2694.6,2040.5,2694.8,2039.5z"/>
				</g>
				<g opacity="0.8">
					<path fill="#FFFFFF" d="M2655.7,2031.2c-1.3,0-2.7,0-4,0.2c-0.2,0-0.3,0.1-0.5,0.1c-1.3,0.2-2.4,0.6-3.2,1.3
						c-0.1,0.1-0.4,0.3-0.6,0.6l7,13.2c0.5,0.1,1.1,0.1,1.6,0.1c0.3,0,0.6,0,0.8,0l-4.3-12.7l6.7,12.5c0.9-0.2,1.6-0.5,2.3-0.9
						l-5.7-14.3C2655.8,2031.2,2655.7,2031.2,2655.7,2031.2z"/>
					<path fill="#FFFFFF" d="M2695.2,2036.5C2695.1,2036.5,2695.1,2036.5,2695.2,2036.5c-0.2,0-0.2,0-0.2-0.1
						c-0.2-2.3-1.4-3.2-1.8-3.6c-0.3-0.2-0.5-0.4-0.9-0.6l2.5,7.3c0.2-0.6,0.3-1.3,0.3-2C2695.2,2037.2,2695.2,2036.8,2695.2,2036.5
						z"/>
					<path fill="#FFFFFF" d="M2691.9,2044.8c0.1-0.1,0.2-0.1,0.3-0.2c0.6-0.6,1.2-1.4,1.6-2.3l-5.9-10.5L2691.9,2044.8z"/>
					<path fill="#FFFFFF" d="M2689.5,2046c0.6-0.2,1.2-0.5,1.7-0.8l-5.3-11.1L2689.5,2046z"/>
				</g>
			</g>
			<text transform="matrix(1 0 0 1 2586.0334 2046.4565)" fill="#FFFFFF" font-family="'KlinicSlab-Book'" font-size="27.2259">Leer</text>
		</g>
	</g>
	<g>
		<rect x="1766" y="2174" fill="#F2F2F2" width="1170" height="315.2"/>
		<rect x="2354" y="2174" fill="#2FCC9F" width="582" height="316.7"/>
		
			<image overflow="visible" width="1600" height="1190" xlink:href="../../../../Users/Jose Agustin Diaz/SkyDrive/PITIN/Blog/MockUp/7834487532_929534000c_h.jpg"  transform="matrix(0.3635 0 0 0.2493 2354 2184)">
		</image>
		<rect x="1774" y="2184" opacity="0.4" fill="none" width="553" height="36.6"/>
		<text transform="matrix(1 0 0 1 1873.428 2206.6235)" fill="#CC3E62" font-family="'KlinicSlab-Medium'" font-size="32">Iniciando una nueva etapa</text>
		<rect x="1774" y="2229.1" fill="none" width="565" height="84.1"/>
		<text transform="matrix(1 0 0 1 1806.0059 2246.1064)"><tspan x="0" y="0" fill="#333333" font-family="'KlinicSlab-Medium'" font-size="24">One Republic - Counting Stars. Letra de la canción </tspan><tspan x="-27.8" y="28.8" fill="#333333" font-family="'KlinicSlab-Medium'" font-size="24">Counting Stars traducida y en inglés: grandes éxitos tra</tspan><tspan x="519.5" y="28.8" fill="#333333" font-family="'KlinicSlab-Medium'" font-size="24">-</tspan><tspan x="19.6" y="57.6" fill="#333333" font-family="'KlinicSlab-Medium'" font-size="24">ducidos para afinar tu oído y mejorar tu inglés.</tspan></text>
		<g>
			<g>
				<text transform="matrix(1 0 0 1 2112.678 2481.7419)" fill="#666666" font-family="'FiraSans-ExtraLight'" font-size="16">VicDiaz</text>
				<path fill="#666666" d="M2097.4,2476.2c-0.5-0.1-0.5-1.4-0.5-1.4s1.4-1.4,1.7-3.3c0.8,0,1.3-2,0.5-2.7c0-0.7,1.1-5.8-4.1-5.8
					s-4.2,5-4.1,5.8c-0.8,0.7-0.3,2.7,0.5,2.7c0.3,1.9,1.7,3.3,1.7,3.3s0,1.3-0.5,1.4c-1.5,0.2-7.3,2.8-7.3,5.6h19.3
					C2104.7,2479,2098.9,2476.4,2097.4,2476.2L2097.4,2476.2z"/>
			</g>
			<g>
				<text transform="matrix(1 0 0 1 1975.678 2481.7419)" fill="#666666" font-family="'FiraSans-ExtraLight'" font-size="16">4 Agosto 2014</text>
				<path fill="#666666" d="M1954.2,2470.1h2.3v2.3h-2.3V2470.1z M1957.7,2470.1h2.3v2.3h-2.3V2470.1z M1961.2,2470.1h2.3v2.3h-2.3
					V2470.1z M1950.7,2477.1h2.3v2.3h-2.3V2477.1z M1954.2,2477.1h2.3v2.3h-2.3V2477.1z M1957.7,2477.1h2.3v2.3h-2.3V2477.1z
					 M1954.2,2473.6h2.3v2.3h-2.3V2473.6z M1957.7,2473.6h2.3v2.3h-2.3V2473.6z M1961.2,2473.6h2.3v2.3h-2.3V2473.6z M1950.7,2473.6
					h2.3v2.3h-2.3V2473.6z M1963.5,2463.1v1.2h-2.3v-1.2h-8.2v1.2h-2.3v-1.2h-2.3v18.6h17.5v-18.6H1963.5z M1964.7,2480.6h-15.2
					v-12.8h15.2V2480.6z"/>
			</g>
		</g>
		<g>
			<path fill="#FF7064" d="M2142.3,2393.6H1970c-2.8,0-5-2.2-5-5V2364c0-2.8,2.2-5,5-5h172.3c2.8,0,5,2.2,5,5v24.6
				C2147.3,2391.4,2145,2393.6,2142.3,2393.6z"/>
			<g>
				<path fill="#333333" d="M2112.1,2368.7c0-0.1-0.3-0.1-0.5-0.2c-0.5,0-1-0.2-1.3-0.3c-0.8-0.2-7.1-1.2-8.9-1.3
					c-4.4-0.1-6.7,0.3-8,0.5c-1.1,0.2-3.8,0.8-5.3,1.7c-0.3,0.2-0.5,0.4-0.7,0.6c-2.2-0.8-5.1-0.8-7.3,0c-0.1-0.2-0.4-0.4-0.7-0.6
					c-1.5-0.9-4.3-1.6-5.3-1.7c-1.4-0.2-3.7-0.6-8-0.5c-1.8,0-8.1,1.1-8.9,1.3c-0.3,0.1-0.9,0.2-1.3,0.3c-0.3,0-0.5,0.1-0.5,0.2
					c-0.1,0.2,0,1.9,0,2.2c0,0.2,0,0.2,0.2,0.3c0.4,0.1,0.5,0.1,1,0.4c0.3,0.2,1,1,1.6,1.6c0.1,0.1,0,0.3,0.1,0.3c0,0,0.2,0,0.5,0
					c0,0.3,0,0.7,0,1.1c0.2,2.8,1.4,5.7,3.1,7.3c1.4,1.3,4.1,2.2,7.2,2.2c2.7,0,5.1-0.4,6.6-1.8c2.1-1.8,3.2-3.9,3.8-7.3
					c0.2-0.9,0.1-1.7,0-2.4c0,0,0-0.1,0-0.1c0.5,0,0.8-0.3,0.8-0.4c0-0.1,0.1-0.5,0.2-0.9c2.1-0.6,4.6-0.6,6.7,0
					c0,0.4,0.1,0.8,0.2,0.9c0,0.1,0.3,0.4,0.8,0.4c0,0,0,0.1,0,0.1c-0.2,0.7-0.2,1.6,0,2.4c0.6,3.4,1.7,5.5,3.8,7.3
					c1.6,1.4,3.9,1.8,6.6,1.8c3.1,0,5.8-0.9,7.2-2.2c1.7-1.6,2.8-4.5,3.1-7.3c0-0.4,0-0.7,0-1.1c0.2,0,0.5,0,0.5,0
					c0.1,0,0-0.2,0.1-0.3c0.6-0.6,1.3-1.4,1.6-1.6c0.5-0.3,0.6-0.3,1-0.4c0.2-0.1,0.2-0.1,0.2-0.3
					C2112.1,2370.6,2112.2,2368.9,2112.1,2368.7z M2079,2374.9c-0.6,3.3-1.6,5.3-3.7,7.1c-1.5,1.3-3.8,1.7-6.4,1.7
					c-3,0-5.6-0.8-7-2.1c-1.6-1.5-2.7-4.3-3-7c0-0.4,0-0.7,0-1c0,0,0.1,0,0.1,0c0.1,0,0.1,0,0.1-0.1c0.2-2.3,1.4-3.2,1.8-3.6
					c1.7-1.5,4.9-1.7,7.7-1.6c3,0,5.2,0.4,7.5,1.4c1.4,0.7,2.1,1.3,2.4,2.5c0,0.1,0.1,0.2,0.2,0.2c0,0,0.1,0,0.1,0
					c0,0.1,0,0.1,0,0.2C2079.1,2373.2,2079.1,2374,2079,2374.9z M2108.1,2374.6c-0.2,2.7-1.4,5.5-3,7c-1.4,1.3-4,2.1-7,2.1
					c-2.6,0-4.9-0.4-6.4-1.7c-2-1.8-3.1-3.8-3.7-7.1c-0.1-0.8-0.1-1.6,0-2.4c0-0.1,0-0.1,0-0.2c0,0,0.1,0,0.1,0
					c0.1,0,0.2-0.1,0.2-0.2c0.3-1.2,0.9-1.8,2.4-2.5c2.2-1,4.5-1.4,7.5-1.4c2.8,0,6,0.2,7.7,1.6c0.4,0.4,1.6,1.3,1.8,3.6
					c0,0.1,0.1,0.1,0.1,0.1c0,0,0.1,0,0.1,0C2108.2,2373.8,2108.2,2374.2,2108.1,2374.6z"/>
				<g opacity="0.5">
					<path fill="#F2F2F2" d="M2078.9,2372.3c0,0-0.1,0-0.1,0c-0.1,0-0.2-0.1-0.2-0.2c-0.3-1.2-0.9-1.8-2.4-2.5
						c-2.2-1-4.4-1.4-7.3-1.4l5.7,14.3c0.3-0.2,0.5-0.4,0.8-0.6c2-1.8,3.1-3.8,3.7-7.1c0.1-0.8,0.1-1.6,0-2.4
						C2078.9,2372.4,2078.9,2372.4,2078.9,2372.3z"/>
					<path fill="#F2F2F2" d="M2059.2,2373.4c0,0.1-0.1,0.1-0.1,0.1c0,0-0.1,0-0.1,0c0,0.3,0,0.7,0,1c0.2,2.7,1.4,5.5,3,7
						c1.1,1,3,1.8,5.4,2l-7-13.2C2059.9,2371,2059.3,2371.9,2059.2,2373.4z"/>
					<path fill="#F2F2F2" d="M2069.7,2383.6c0.9,0,1.7-0.1,2.5-0.3l-6.7-12.5L2069.7,2383.6z"/>
					<path fill="#F2F2F2" d="M2107.8,2376.5l-2.5-7.3c-1.2-0.7-2.9-0.9-4.6-1c-0.1,0-0.1,0-0.2,0c-0.7,0-1.4,0-2.1,0
						c-0.1,0-0.3,0-0.4,0c-0.2,0-0.3,0-0.5,0c0,0-0.1,0-0.1,0c-2.5,0.1-4.5,0.5-6.5,1.4c-1.4,0.7-2.1,1.3-2.4,2.5
						c0,0.1-0.1,0.2-0.2,0.2c0,0-0.1,0-0.1,0c0,0.1,0,0.1,0,0.2c-0.2,0.7-0.2,1.5,0,2.4c0.6,3.3,1.6,5.3,3.7,7.1
						c1.5,1.3,3.8,1.7,6.4,1.7c0.6,0,1.2,0,1.7-0.1c0.9-0.1,1.8-0.3,2.6-0.5l-3.6-11.9l5.3,11.1c0.2-0.1,0.5-0.3,0.7-0.5l-4-13
						l5.9,10.5C2107.2,2378.4,2107.6,2377.5,2107.8,2376.5z"/>
				</g>
				<g opacity="0.8">
					<path fill="#FFFFFF" d="M2068.7,2368.2c-1.3,0-2.7,0-4,0.2c-0.2,0-0.3,0.1-0.5,0.1c-1.3,0.2-2.4,0.6-3.2,1.3
						c-0.1,0.1-0.4,0.3-0.6,0.6l7,13.2c0.5,0.1,1.1,0.1,1.6,0.1c0.3,0,0.6,0,0.8,0l-4.3-12.7l6.7,12.5c0.9-0.2,1.6-0.5,2.3-0.9
						l-5.7-14.3C2068.8,2368.2,2068.7,2368.2,2068.7,2368.2z"/>
					<path fill="#FFFFFF" d="M2108.2,2373.5C2108.1,2373.5,2108.1,2373.5,2108.2,2373.5c-0.2,0-0.2,0-0.2-0.1
						c-0.2-2.3-1.4-3.2-1.8-3.6c-0.3-0.2-0.5-0.4-0.9-0.6l2.5,7.3c0.2-0.6,0.3-1.3,0.3-2C2108.2,2374.2,2108.2,2373.8,2108.2,2373.5
						z"/>
					<path fill="#FFFFFF" d="M2104.9,2381.8c0.1-0.1,0.2-0.1,0.3-0.2c0.6-0.6,1.2-1.4,1.6-2.3l-5.9-10.5L2104.9,2381.8z"/>
					<path fill="#FFFFFF" d="M2102.5,2383c0.6-0.2,1.2-0.5,1.7-0.8l-5.3-11.1L2102.5,2383z"/>
				</g>
			</g>
			<text transform="matrix(1 0 0 1 1999.0333 2383.4565)" fill="#FFFFFF" font-family="'KlinicSlab-Book'" font-size="27.2259">Leer</text>
		</g>
	</g>
	<g>
		<rect x="1766" y="2509.2" fill="#2FCC9F" width="1170" height="417.8"/>
		<g>
			<path fill="none" stroke="#E6E6E6" stroke-miterlimit="10" d="M2421,2580h-139c-1.7,0-3-1.3-3-3v-21c0-1.7,1.3-3,3-3h139
				c1.7,0,3,1.3,3,3v21C2424,2578.7,2422.7,2580,2421,2580z"/>
			<g>
				<text transform="matrix(1 0 0 1 2326.3645 2571.6719)" fill="#E6E6E6" font-family="'FiraSans-ExtraLight'" font-size="18">MarsVic5</text>
				<path fill="#E6E6E6" d="M2322,2560.5c-0.6,0.3-1.2,0.4-1.8,0.5c0.7-0.4,1.2-1,1.4-1.8c-0.6,0.4-1.3,0.6-2,0.8
					c-0.6-0.6-1.4-1-2.3-1c-1.8,0-3.2,1.4-3.2,3.2c0,0.3,0,0.5,0.1,0.7c-2.7-0.1-5-1.4-6.6-3.3c-0.3,0.5-0.4,1-0.4,1.6
					c0,1.1,0.6,2.1,1.4,2.7c-0.5,0-1-0.2-1.4-0.4c0,0,0,0,0,0c0,1.5,1.1,2.8,2.6,3.1c-0.3,0.1-0.6,0.1-0.8,0.1c-0.2,0-0.4,0-0.6-0.1
					c0.4,1.3,1.6,2.2,3,2.2c-1.1,0.9-2.5,1.4-4,1.4c-0.3,0-0.5,0-0.8,0c1.4,0.9,3.1,1.4,4.9,1.4c5.9,0,9.1-4.9,9.1-9.1
					c0-0.1,0-0.3,0-0.4C2321,2561.7,2321.6,2561.2,2322,2560.5z"/>
			</g>
		</g>
		<g>
			<path fill="none" stroke="#E6E6E6" stroke-miterlimit="10" d="M2454.4,2628.8h-206.3c-1.7,0-3-1.3-3-3v-21c0-1.7,1.3-3,3-3h206.3
				c1.7,0,3,1.3,3,3v21C2457.4,2627.5,2456.1,2628.8,2454.4,2628.8z"/>
			<g>
				<text transform="matrix(1 0 0 1 2275.8088 2620.47)" fill="#E6E6E6" font-family="'FiraSans-ExtraLight'" font-size="18">mars.vic5@gmail.com</text>
				<g>
					<polygon fill="#E6E6E6" points="2270.6,2620.5 2270.6,2609.4 2264.6,2614 2267.7,2617.5 2267.6,2617.6 2264,2614.4 
						2261.8,2616.1 2259.6,2614.4 2256,2617.6 2255.9,2617.5 2259,2614 2253,2609.4 2253,2620.5 					"/>
					<polygon fill="#E6E6E6" points="2270.2,2608.8 2253.4,2608.8 2261.8,2615.2 					"/>
				</g>
			</g>
		</g>
		<g>
			<defs>
				<circle id="SVGID_9_" cx="2350.9" cy="2703.7" r="55"/>
			</defs>
			<clipPath id="SVGID_10_">
				<use xlink:href="#SVGID_9_"  overflow="visible"/>
			</clipPath>
			<g clip-path="url(#SVGID_10_)">
				
					<image overflow="visible" width="876" height="960" xlink:href="../../../../Users/Jose Agustin Diaz/SkyDrive/PITIN/Blog/MockUp/1451495_357036887775103_1716363078_n.jpg"  transform="matrix(0.1256 0 0 0.1256 2295.8872 2642.9282)">
				</image>
			</g>
			<use xlink:href="#SVGID_9_"  overflow="visible" fill="none" stroke="#E6E6E6" stroke-width="2" stroke-miterlimit="10"/>
		</g>
		<text transform="matrix(1 0 0 1 2242.9893 2791.5254)" fill="#E6E6E6" font-family="'FiraSans-ExtraLight'" font-size="18">Víctor Agustín Díaz Méndez</text>
	</g>
	<g>
		<path fill="#B3B3B3" d="M2846.3,90.3h-70c-2.8,0-5-2.2-5-5V76c0-2.8,2.2-5,5-5h70c2.8,0,5,2.2,5,5v9.3
			C2851.3,88.1,2849.1,90.3,2846.3,90.3z"/>
		<g>
			<text transform="matrix(0.9711 0 0 1 2796.1826 84.7949)" font-family="'FiraSans-ExtraLight'" font-size="11.7427">MarsVic5</text>
			<path fill="#29ABE2" d="M2793.4,77.5c-0.4,0.2-0.8,0.3-1.2,0.3c0.4-0.3,0.7-0.7,0.9-1.2c-0.4,0.2-0.8,0.4-1.3,0.5
				c-0.4-0.4-0.9-0.7-1.5-0.7c-1.1,0-2,0.9-2,2.1c0,0.2,0,0.3,0.1,0.5c-1.7-0.1-3.2-0.9-4.2-2.2c-0.2,0.3-0.3,0.7-0.3,1
				c0,0.7,0.4,1.4,0.9,1.7c-0.3,0-0.6-0.1-0.9-0.3c0,0,0,0,0,0c0,1,0.7,1.9,1.6,2c-0.2,0-0.3,0.1-0.5,0.1c-0.1,0-0.3,0-0.4,0
				c0.3,0.8,1,1.4,1.9,1.4c-0.7,0.6-1.6,0.9-2.5,0.9c-0.2,0-0.3,0-0.5,0c0.9,0.6,2,0.9,3.1,0.9c3.7,0,5.8-3.2,5.8-5.9
				c0-0.1,0-0.2,0-0.3C2792.8,78.3,2793.1,77.9,2793.4,77.5z"/>
		</g>
	</g>
</g>
</svg>
